<?xml version="1.0" encoding="utf-8"?>
<!-- Generator: Adobe Illustrator 22.1.0, SVG Export Plug-In . SVG Version: 6.00 Build 0)  -->
<svg version="1.1" id="Layer_1" xmlns="http://www.w3.org/2000/svg" xmlns:xlink="http://www.w3.org/1999/xlink" x="0px" y="0px"
	 viewBox="0 0 99 108" style="enable-background:new 0 0 99 108;" xml:space="preserve">
<style type="text/css">
	.st0{fill:#FFFFFF;}
	.st1{fill:#D3D8DC;}
	.st2{fill:#007D74;}
	.st3{fill:#333333;}
	.st4{fill:url(#SVGID_1_);}
	.st5{fill:#009595;stroke:#009595;stroke-width:29;stroke-miterlimit:10;}
	.st6{fill:#1EADA6;}
	.st7{fill:#E2E3E4;}
	.st8{fill:#008D8E;stroke:#008D8E;stroke-width:5.2707;}
	.st9{fill:#008C8D;stroke:#008C8D;stroke-width:5.2707;}
	.st10{fill:#008B8C;stroke:#008B8C;stroke-width:5.2707;}
	.st11{fill:#008A8B;stroke:#008A8B;stroke-width:5.2707;}
	.st12{fill:#008E8F;stroke:#008E8F;stroke-width:5.2707;}
	.st13{fill:#00898A;stroke:#00898A;stroke-width:5.2707;}
	.st14{fill:#008788;stroke:#008788;stroke-width:5.2707;}
	.st15{fill:#008889;stroke:#008889;stroke-width:5.2707;}
	.st16{fill:#008585;stroke:#008585;stroke-width:5.2707;}
	.st17{fill:#008484;stroke:#008484;stroke-width:5.2707;}
	.st18{fill:#008787;stroke:#008787;stroke-width:5.2707;}
	.st19{fill:#008686;stroke:#008686;stroke-width:5.2707;}
	.st20{fill:#008384;stroke:#008384;stroke-width:5.2707;}
	.st21{fill:#008687;stroke:#008687;stroke-width:5.2707;}
	.st22{fill:#008283;stroke:#008283;stroke-width:5.2707;}
	.st23{fill:#008485;stroke:#008485;stroke-width:5.2707;}
	.st24{fill:#008081;stroke:#008081;stroke-width:5.2707;}
	.st25{fill:#007F80;stroke:#007F80;stroke-width:5.2707;}
	.st26{fill:#008080;stroke:#008080;stroke-width:5.2707;}
	.st27{fill:#008182;stroke:#008182;stroke-width:5.2707;}
	.st28{fill:#008586;stroke:#008586;stroke-width:5.2707;}
	.st29{fill:#007E7F;stroke:#007E7F;stroke-width:5.2707;}
	.st30{fill:#007A7A;stroke:#007A7A;stroke-width:5.2707;}
	.st31{fill:#007C7C;stroke:#007C7C;stroke-width:5.2707;}
	.st32{fill:#007D7E;stroke:#007D7E;stroke-width:5.2707;}
	.st33{fill:#007C7D;stroke:#007C7D;stroke-width:5.2707;}
	.st34{fill:#007B7C;stroke:#007B7C;stroke-width:5.2707;}
	.st35{fill:#007B7B;stroke:#007B7B;stroke-width:5.2707;}
	.st36{fill:#007A7B;stroke:#007A7B;stroke-width:5.2707;}
	.st37{fill:#007778;stroke:#007778;stroke-width:5.2707;}
	.st38{fill:#007677;stroke:#007677;stroke-width:5.2707;}
	.st39{fill:#007273;stroke:#007273;stroke-width:5.2707;}
	.st40{fill:#007475;stroke:#007475;stroke-width:5.2707;}
	.st41{fill:#007979;stroke:#007979;stroke-width:5.2707;}
	.st42{fill:#007576;stroke:#007576;stroke-width:5.2707;}
	.st43{fill:#007878;stroke:#007878;stroke-width:5.2707;}
	.st44{fill:#007172;stroke:#007172;stroke-width:5.2707;}
	.st45{fill:#00797A;stroke:#00797A;stroke-width:5.2707;}
	.st46{fill:#007474;stroke:#007474;stroke-width:5.2707;}
	.st47{fill:#006E6F;stroke:#006E6F;stroke-width:5.2707;}
	.st48{fill:#007373;stroke:#007373;stroke-width:5.2707;}
	.st49{fill:#006F70;stroke:#006F70;stroke-width:5.2707;}
	.st50{fill:#007171;stroke:#007171;stroke-width:5.2707;}
	.st51{fill:#007879;stroke:#007879;stroke-width:5.2707;}
	.st52{fill:#007272;stroke:#007272;stroke-width:5.2707;}
	.st53{fill:#007374;stroke:#007374;stroke-width:5.2707;}
	.st54{fill:#007070;stroke:#007070;stroke-width:5.2707;}
	.st55{fill:#006A6B;stroke:#006A6B;stroke-width:5.2707;}
	.st56{fill:#006E6E;stroke:#006E6E;stroke-width:5.2707;}
	.st57{fill:#006C6C;stroke:#006C6C;stroke-width:5.2707;}
	.st58{fill:#006D6E;stroke:#006D6E;stroke-width:5.2707;}
	.st59{fill:#007071;stroke:#007071;stroke-width:5.2707;}
	.st60{fill:#006A6A;stroke:#006A6A;stroke-width:5.2707;}
	.st61{fill:#006868;stroke:#006868;stroke-width:5.2707;}
	.st62{fill:#006B6B;stroke:#006B6B;stroke-width:5.2707;}
	.st63{fill:#006768;stroke:#006768;stroke-width:5.2707;}
	.st64{fill:#006B6C;stroke:#006B6C;stroke-width:5.2707;}
	.st65{fill:#00696A;stroke:#00696A;stroke-width:5.2707;}
	.st66{fill:#006D6D;stroke:#006D6D;stroke-width:5.2707;}
	.st67{fill:#006767;stroke:#006767;stroke-width:5.2707;}
	.st68{fill:#006C6D;stroke:#006C6D;stroke-width:5.2707;}
	.st69{fill:#006465;stroke:#006465;stroke-width:5.2707;}
	.st70{fill:#006666;stroke:#006666;stroke-width:5.2707;}
	.st71{fill:#006869;stroke:#006869;stroke-width:5.2707;}
	.st72{fill:#006969;stroke:#006969;stroke-width:5.2707;}
	.st73{fill:#006363;stroke:#006363;stroke-width:5.2707;}
	.st74{fill:#006464;stroke:#006464;stroke-width:5.2707;}
	.st75{fill:#006161;stroke:#006161;stroke-width:5.2707;}
	.st76{fill:#006565;stroke:#006565;stroke-width:5.2707;}
	.st77{fill:#005E5F;stroke:#005E5F;stroke-width:5.2707;}
	.st78{fill:#006262;stroke:#006262;stroke-width:5.2707;}
	.st79{fill:#006060;stroke:#006060;stroke-width:5.2707;}
	.st80{fill:#005F60;stroke:#005F60;stroke-width:5.2707;}
	.st81{fill:#005C5C;stroke:#005C5C;stroke-width:5.2707;}
	.st82{fill:#005E5E;stroke:#005E5E;stroke-width:5.2707;}
	.st83{fill:#005B5B;stroke:#005B5B;stroke-width:5.2707;}
	.st84{fill:#006162;stroke:#006162;stroke-width:5.2707;}
	.st85{fill:#006263;stroke:#006263;stroke-width:5.2707;}
	.st86{fill:#005D5D;stroke:#005D5D;stroke-width:5.2707;}
	.st87{fill:#005858;stroke:#005858;stroke-width:5.2707;}
	.st88{fill:#006364;stroke:#006364;stroke-width:5.2707;}
	.st89{fill:#006061;stroke:#006061;stroke-width:5.2707;}
	.st90{fill:#00595A;stroke:#00595A;stroke-width:5.2707;}
	.st91{fill:#005A5A;stroke:#005A5A;stroke-width:5.2707;}
	.st92{fill:#005454;stroke:#005454;stroke-width:5.2707;}
	.st93{fill:#005758;stroke:#005758;stroke-width:5.2707;}
	.st94{fill:#005353;stroke:#005353;stroke-width:5.2707;}
	.st95{fill:#005757;stroke:#005757;stroke-width:5.2707;}
	.st96{fill:#005555;stroke:#005555;stroke-width:5.2707;}
	.st97{fill:#004E4E;stroke:#004E4E;stroke-width:5.2707;}
	.st98{fill:#005656;stroke:#005656;stroke-width:5.2707;}
	.st99{fill:#005152;stroke:#005152;stroke-width:5.2707;}
	.st100{fill:#005050;stroke:#005050;stroke-width:5.2707;}
	.st101{fill:#005657;stroke:#005657;stroke-width:5.2707;}
	.st102{fill:#005F5F;stroke:#005F5F;stroke-width:5.2707;}
	.st103{fill:#005859;stroke:#005859;stroke-width:5.2707;}
	.st104{fill:#005959;stroke:#005959;stroke-width:5.2707;}
	.st105{fill:#004F4F;stroke:#004F4F;stroke-width:5.2707;}
	.st106{fill:#004C4C;stroke:#004C4C;stroke-width:5.2707;}
	.st107{fill:#004B4B;stroke:#004B4B;stroke-width:5.2707;}
	.st108{fill:#004545;stroke:#004545;stroke-width:5.2707;}
	.st109{fill:#004C4D;stroke:#004C4D;stroke-width:5.2707;}
	.st110{fill:#004D4D;stroke:#004D4D;stroke-width:5.2707;}
	.st111{fill:#005151;stroke:#005151;stroke-width:5.2707;}
	.st112{fill:#004949;stroke:#004949;stroke-width:5.2707;}
	.st113{fill:#004646;stroke:#004646;stroke-width:5.2707;}
	.st114{fill:#004A4A;stroke:#004A4A;stroke-width:5.2707;}
	.st115{fill:#004444;stroke:#004444;stroke-width:5.2707;}
	.st116{fill:#004848;stroke:#004848;stroke-width:5.2707;}
	.st117{fill:#003E3E;stroke:#003E3E;stroke-width:5.2707;}
	.st118{fill:#004747;stroke:#004747;stroke-width:5.2707;}
	.st119{fill:#005051;stroke:#005051;stroke-width:5.2707;}
	.st120{fill:#004343;stroke:#004343;stroke-width:5.2707;}
	.st121{fill:#003939;stroke:#003939;stroke-width:5.2707;}
	.st122{fill:#003F3F;stroke:#003F3F;stroke-width:5.2707;}
	.st123{fill:#004141;stroke:#004141;stroke-width:5.2707;}
	.st124{fill:#003C3B;stroke:#003C3B;stroke-width:5.2707;}
	.st125{fill:#003D3D;stroke:#003D3D;stroke-width:5.2707;}
	.st126{fill:#003130;stroke:#003130;stroke-width:5.2707;}
	.st127{fill:#004242;stroke:#004242;stroke-width:5.2707;}
	.st128{fill:#003E3D;stroke:#003E3D;stroke-width:5.2707;}
	.st129{fill:#003A39;stroke:#003A39;stroke-width:5.2707;}
	.st130{fill:#002120;stroke:#002120;stroke-width:5.2707;}
	.st131{fill:#003A3A;stroke:#003A3A;stroke-width:5.2707;}
	.st132{fill:#002E2E;stroke:#002E2E;stroke-width:5.2707;}
	.st133{fill:#003534;stroke:#003534;stroke-width:5.2707;}
	.st134{fill:#003C3C;stroke:#003C3C;stroke-width:5.2707;}
	.st135{fill:#003332;stroke:#003332;stroke-width:5.2707;}
	.st136{fill:#002322;stroke:#002322;stroke-width:5.2707;}
	.st137{fill:#00302F;stroke:#00302F;stroke-width:5.2707;}
	.st138{fill:#002625;stroke:#002625;stroke-width:5.2707;}
	.st139{fill:#004040;stroke:#004040;stroke-width:5.2707;}
	.st140{fill:#002E2D;stroke:#002E2D;stroke-width:5.2707;}
	.st141{fill:#003333;stroke:#003333;stroke-width:5.2707;}
	.st142{fill:#003635;stroke:#003635;stroke-width:5.2707;}
	.st143{fill:#003131;stroke:#003131;stroke-width:5.2707;}
	.st144{fill:#001B19;stroke:#001B19;stroke-width:5.2707;}
	.st145{fill:#002221;stroke:#002221;stroke-width:5.2707;}
	.st146{fill:#002F2F;stroke:#002F2F;stroke-width:5.2707;}
	.st147{fill:#001513;stroke:#001513;stroke-width:5.2707;}
	.st148{fill:#003838;stroke:#003838;stroke-width:5.2707;}
	.st149{fill:#003B3B;stroke:#003B3B;stroke-width:5.2707;}
	.st150{fill:#001412;stroke:#001412;stroke-width:5.2707;}
	.st151{fill:#00100E;stroke:#00100E;stroke-width:5.2707;}
	.st152{fill:#00201F;stroke:#00201F;stroke-width:5.2707;}
	.st153{fill:#002726;stroke:#002726;stroke-width:5.2707;}
	.st154{fill:#002928;stroke:#002928;stroke-width:5.2707;}
	.st155{fill:#002727;stroke:#002727;stroke-width:5.2707;}
	.st156{fill:#002C2B;stroke:#002C2B;stroke-width:5.2707;}
	.st157{fill:#003232;stroke:#003232;stroke-width:5.2707;}
	.st158{fill:#003837;stroke:#003837;stroke-width:5.2707;}
	.st159{fill:#001F1E;stroke:#001F1E;stroke-width:5.2707;}
	.st160{fill:#003636;stroke:#003636;stroke-width:5.2707;}
	.st161{fill:#002A29;stroke:#002A29;stroke-width:5.2707;}
	.st162{fill:#001C1B;stroke:#001C1B;stroke-width:5.2707;}
	.st163{fill:#002B2B;stroke:#002B2B;stroke-width:5.2707;}
	.st164{fill:#001311;stroke:#001311;stroke-width:5.2707;}
	.st165{fill:#001D1C;stroke:#001D1C;stroke-width:5.2707;}
	.st166{fill:#002A2A;stroke:#002A2A;stroke-width:5.2707;}
	.st167{fill:#001E1D;stroke:#001E1D;stroke-width:5.2707;}
	.st168{fill:#002827;stroke:#002827;stroke-width:5.2707;}
	.st169{fill:#005252;stroke:#005252;stroke-width:5.2707;}
	.st170{fill:#001816;stroke:#001816;stroke-width:5.2707;}
	.st171{fill:#00120F;stroke:#00120F;stroke-width:5.2707;}
	.st172{fill:#001A18;stroke:#001A18;stroke-width:5.2707;}
	.st173{fill:#002D2C;stroke:#002D2C;stroke-width:5.2707;}
	.st174{fill:#002524;stroke:#002524;stroke-width:5.2707;}
	.st175{fill:#001917;stroke:#001917;stroke-width:5.2707;}
	.st176{fill:#001715;stroke:#001715;stroke-width:5.2707;}
	.st177{fill:#003434;stroke:#003434;stroke-width:5.2707;}
	.st178{fill:#002423;stroke:#002423;stroke-width:5.2707;}
	.st179{fill:#003737;stroke:#003737;stroke-width:5.2707;}
	.st180{fill:#E3E6E9;}
	.st181{fill:#009494;}
	.st182{fill:none;stroke:#A2A4A7;stroke-miterlimit:10;}
	.st183{fill:none;stroke:#009494;stroke-width:2.2996;stroke-miterlimit:10;}
	.st184{fill:none;stroke:#FFFFFF;stroke-width:1.3344;stroke-linecap:round;stroke-miterlimit:10;}
	.st185{fill:none;stroke:#FFFFFF;stroke-width:1.3344;stroke-linecap:round;stroke-linejoin:round;stroke-miterlimit:10;}
	.st186{fill:#1D3641;}
	.st187{fill:#8BCFD2;}
	.st188{fill:#27B7B3;}
	.st189{fill:url(#SVGID_2_);}
	.st190{fill:#1D3641;stroke:#009595;stroke-width:2;stroke-linecap:round;stroke-miterlimit:10;}
	.st191{fill:none;stroke:#FFFFFF;stroke-width:3.3855;stroke-linejoin:round;stroke-miterlimit:10;}
	.st192{fill:none;stroke:#FFFFFF;stroke-width:3.3846;stroke-linecap:round;stroke-linejoin:round;stroke-miterlimit:10;}
	.st193{fill:none;stroke:#6FC1BF;stroke-width:3.3846;stroke-linecap:round;stroke-miterlimit:10;}
	.st194{fill:none;stroke:#FFFFFF;stroke-width:3.3855;stroke-miterlimit:10;}
	.st195{fill:none;stroke:#6FC1BF;stroke-width:3.3846;stroke-linecap:round;stroke-linejoin:round;stroke-miterlimit:10;}
	.st196{fill:none;stroke:#FFFFFF;stroke-width:4.2486;stroke-linecap:round;stroke-miterlimit:10;}
	.st197{fill:#FFFFFF;stroke:#FFFFFF;stroke-width:4.2486;stroke-linecap:round;stroke-miterlimit:10;}
	.st198{fill:none;stroke:#FFFFFF;stroke-width:4.2486;stroke-linecap:round;stroke-linejoin:round;stroke-miterlimit:10;}
	.st199{fill:none;stroke:#FFFFFF;stroke-width:7;stroke-linecap:round;stroke-linejoin:round;stroke-miterlimit:10;}
	.st200{opacity:0.9;fill:none;stroke:#FFFFFF;stroke-width:2;stroke-miterlimit:10;}
	.st201{fill:none;stroke:#FFFFFF;stroke-width:4.3205;stroke-linecap:round;stroke-linejoin:round;stroke-miterlimit:10;}
	.st202{fill:none;stroke:#FFFFFF;stroke-width:1.2336;stroke-linecap:round;stroke-miterlimit:10;}
	.st203{fill:none;stroke:#FFFFFF;stroke-width:1.2281;stroke-linecap:round;stroke-linejoin:round;stroke-miterlimit:10;}
	.st204{fill:none;stroke:#FFFFFF;stroke-width:1.2281;stroke-linecap:round;stroke-miterlimit:10;}
	.st205{fill:none;stroke:#FFFFFF;stroke-width:3.3855;stroke-linecap:round;stroke-linejoin:round;stroke-miterlimit:10;}
	.st206{fill:none;stroke:#FFFFFF;stroke-width:3.3878;stroke-linecap:round;stroke-linejoin:round;stroke-miterlimit:10;}
	.st207{fill:none;stroke:#FFFFFF;stroke-width:1.8211;stroke-linecap:round;stroke-linejoin:round;stroke-miterlimit:10;}
	.st208{fill:#B7B9BB;}
	.st209{fill:#81CCCD;}
	.st210{opacity:0.3;}
	.st211{fill:none;stroke:#1C3640;stroke-width:4.0715;stroke-linecap:round;stroke-linejoin:round;stroke-miterlimit:10;}
	
		.st212{opacity:0.3;fill:none;stroke:#1C3640;stroke-width:4.0715;stroke-linecap:round;stroke-linejoin:round;stroke-miterlimit:10;}
	.st213{opacity:0.3;fill:none;stroke:#1D3641;stroke-width:4.0961;stroke-miterlimit:10;stroke-dasharray:16.3846;}
	.st214{fill:none;stroke:#007D74;stroke-width:36.2212;stroke-miterlimit:10;}
	.st215{fill:none;stroke:#404041;stroke-width:4;stroke-miterlimit:10;stroke-dasharray:16.123;}
	.st216{fill:none;stroke:#58595B;stroke-width:36.2212;stroke-miterlimit:10;}
	.st217{fill:none;stroke:#1C3640;stroke-width:5.7015;stroke-linecap:round;stroke-linejoin:round;stroke-miterlimit:10;}
	.st218{fill:#474748;}
	
		.st219{opacity:0.3;fill:none;stroke:#1C3640;stroke-width:6.6761;stroke-linecap:round;stroke-linejoin:round;stroke-miterlimit:10;}
	
		.st220{opacity:0.3;fill:none;stroke:#1C3640;stroke-width:5.2818;stroke-linecap:round;stroke-linejoin:round;stroke-miterlimit:10;}
	.st221{fill:none;stroke:#1C3640;stroke-width:4.7954;stroke-linecap:round;stroke-linejoin:round;stroke-miterlimit:10;}
	.st222{fill:none;stroke:#464646;stroke-width:36.2212;stroke-miterlimit:10;}
	.st223{fill:none;stroke:#009595;stroke-width:36.2212;stroke-miterlimit:10;}
	.st224{fill:none;stroke:#007D74;stroke-width:6.2039;stroke-linecap:round;stroke-linejoin:round;stroke-miterlimit:10;}
	.st225{fill:#009595;stroke:#009595;stroke-width:29.065;stroke-miterlimit:10;}
	.st226{fill:none;stroke:#007D74;stroke-width:29;stroke-miterlimit:10;}
	.st227{fill:none;stroke:#009595;stroke-width:29;stroke-miterlimit:10;}
	.st228{fill:none;stroke:#FFFFFF;stroke-width:1.581;stroke-linecap:round;stroke-miterlimit:10;}
	.st229{fill-rule:evenodd;clip-rule:evenodd;}
	.st230{fill-rule:evenodd;clip-rule:evenodd;fill:#FFFFFF;}
	.st231{fill:none;stroke:#FFFFFF;stroke-width:1.2797;stroke-linecap:round;stroke-linejoin:round;stroke-miterlimit:10;}
	.st232{fill:none;stroke:#FFFFFF;stroke-width:1.2435;stroke-linecap:round;stroke-linejoin:round;stroke-miterlimit:10;}
	.st233{fill:none;stroke:#FFFFFF;stroke-width:1.581;stroke-linecap:round;stroke-linejoin:round;stroke-miterlimit:10;}
	.st234{fill:none;stroke:#FFFFFF;stroke-width:0.946;stroke-linecap:round;stroke-miterlimit:10;}
	.st235{fill:none;stroke:#FFFFFF;stroke-width:0.7237;stroke-linecap:round;stroke-miterlimit:10;}
	.st236{fill:none;stroke:#FFFFFF;stroke-width:0.8768;stroke-linecap:round;stroke-miterlimit:10;}
	.st237{fill:none;stroke:#FFFFFF;stroke-width:0.931;stroke-linecap:round;stroke-miterlimit:10;}
	.st238{fill:#EDEDEE;}
	.st239{fill:#090909;}
	.st240{fill:#2358BD;}
	.st241{fill:#0D2026;}
	.st242{fill:#BB1D1D;}
	.st243{fill:#E17428;}
	.st244{fill:none;}
	.st245{opacity:0.4;fill:none;stroke:#231F20;stroke-width:2;stroke-linecap:round;stroke-miterlimit:10;}
	.st246{fill:none;stroke:#231F20;stroke-width:1.581;stroke-linecap:round;stroke-linejoin:round;stroke-miterlimit:10;}
	.st247{fill:#AD2036;stroke:#AD2036;stroke-width:2;stroke-miterlimit:10;}
	.st248{fill:none;stroke:#A2A4A7;stroke-width:4.4112;stroke-linecap:round;stroke-linejoin:round;stroke-miterlimit:10;}
	.st249{fill:#191919;}
	.st250{fill:url(#SVGID_3_);}
	.st251{fill:#282828;}
	.st252{fill:#05353A;}
	.st253{fill:#808080;}
	.st254{opacity:0.4;fill:none;stroke:#FFFFFF;stroke-width:2;stroke-linecap:round;stroke-miterlimit:10;}
	.st255{fill:url(#SVGID_4_);}
	.st256{fill:none;stroke:#6D6E70;stroke-width:4.4112;stroke-linecap:round;stroke-linejoin:round;stroke-miterlimit:10;}
	.st257{fill:url(#SVGID_5_);}
	.st258{fill:url(#SVGID_6_);}
	.st259{fill:url(#SVGID_7_);}
	.st260{fill:url(#SVGID_8_);}
	.st261{fill:url(#SVGID_9_);}
	.st262{fill:url(#SVGID_10_);}
	.st263{fill:#6D6E70;}
	.st264{fill:none;stroke:#FFFFFF;stroke-width:2;stroke-linecap:round;stroke-miterlimit:10;}
	.st265{fill:url(#SVGID_11_);}
	.st266{opacity:0.72;}
	.st267{fill:url(#SVGID_12_);}
	.st268{fill:url(#SVGID_13_);}
	.st269{fill:#231F20;}
	.st270{fill:url(#SVGID_14_);}
	.st271{fill:url(#SVGID_15_);}
	.st272{fill:url(#SVGID_16_);}
	.st273{fill:url(#SVGID_17_);}
	.st274{fill:#FFFFFF;stroke:#A2A4A7;stroke-miterlimit:10;}
	.st275{fill:none;stroke:#007D74;stroke-linecap:round;stroke-miterlimit:10;}
	.st276{fill:#37A53A;}
	.st277{fill:#EBC300;}
	.st278{fill:#8E9093;}
</style>
<g>
	<path d="M24.3,33.5c-0.5-1.1-1.1-2-1.4-3c-1-3.5-2.2-6.9-2.4-10.6c-0.1-2.6-0.1-5.1,0.3-7.6c0.3-2,0.9-4,1.5-5.9
		c0.1-0.3,0.3-0.6,0.7-0.6c0.4,0,0.6,0.3,0.7,0.6c0.8,1.9,1.9,3.6,2.8,5.4c0.2,0.3,0.3,0.7,0.6,1c1.5,2.3,3,4.5,4.5,6.7
		c2.8,4.4,6.1,8.4,9.6,12.3c3.5,3.7,7.2,7.2,11.3,10.4c2.2,1.7,4.5,3.2,6.6,4.9c1.7,1.3,2.5,3.1,2,5.4c-0.2,1.1-1,1.6-1.9,2.1
		c-0.4,0.2-0.6,0-0.7-0.4c-0.1-0.4,0.1-0.7,0.2-1c0.1-0.3,0.5-0.7,0-1c-0.4-0.2-0.9-0.1-1.2,0.3c-0.5,0.8-1,1.7-1.4,2.5
		c-1.1,2.4-2.3,4.7-3.4,7.2c-0.7,1.6-1,3.3-1.6,4.9c-0.8,1.8-0.8,3.8-1.3,5.7c-0.2,0.7-0.2,1.4-0.3,2.1c-0.1,1.7-0.6,3.3-0.5,4.9
		c0,0.3-0.1,0.7,0.1,0.9c0.4,0,0.5-0.4,0.7-0.6c0.4-0.3,0.9-0.6,1.3-0.2c0.4,0.3,0.3,0.8,0.1,1.3c-0.4,0.9-0.6,1.9-0.8,2.8
		c-0.5,2.5,0.1,4.8,1,7.1c0.2,0.4,0.3,0.8-0.1,1.1c-0.3,0.2-0.7,0.1-1-0.1c-0.8-0.6-1.3-1.4-1.6-2.3c-0.6-1.9-1.3-3.9-1.8-5.9
		c-0.8-3.3-1.1-6.7-0.7-10.1c0.2-1.4,0-2.7,0.3-4.1c0.3-1.1,0.7-2.2,0.5-3.5c0,0,0-0.1,0-0.1c1.2-3,1.3-6.3,2.4-9.3
		c1.1-2.9,0.6-5.6-0.8-8.4c-1.8-3.6-4.6-6.3-7-9.4c-1.8-2.2-3.4-4.6-5.2-6.8c-2.3-2.9-4.3-6.1-6.3-9.1c-1.2-1.8-2.6-3.6-3.4-5.7
		c-0.1-0.3-0.2-0.7-0.5-0.6c-0.4,0.1-0.2,0.5-0.3,0.7c-0.1,1.8-0.4,3.5-0.4,5.3c0,2.3,0.5,4.5,1,6.7c0.8,3.4,2.4,6.4,4.3,9.3
		c1.9,2.9,4.1,5.6,6.5,8.1c2.1,2.1,4.3,4.1,6.7,5.8c1,0.7,1.7,1.7,2.6,2.4c0.3,0.3,0.3,0.7,0,1.1c-0.3,0.3-0.7,0.2-1,0
		c-1.5-1-3-1.9-4.5-3c-1.1-0.8-2.2-1.7-3.3-2.6c-2.1-1.8-4.1-3.7-6-5.7c-1.5-1.6-2.8-3.4-4.1-5.1c-0.6-0.7-1-1.6-1.5-2.4
		c-0.3-0.4-0.6-0.7-1.2-0.5c-0.6,0.1-1.2,0-1.7-0.5c-0.5-0.4-1.2-1-1.8-0.7c-0.5,0.3-0.1,1.1,0,1.6c1,5,3.4,9.3,7.1,12.8
		c2.8,2.7,5.8,4.9,9.2,6.7c2.1,1.1,4,2.7,6.4,3.3c0.4,0.1,0.8,0.4,0.7,0.9c-0.1,0.5-0.6,0.6-1,0.6c-1.3,0-2.6-0.5-3.7-1
		c-1.7-0.8-3.4-1.7-5.1-2.6c-4.3-2.4-8.2-5.3-11.4-9.1c-1.4-1.6-2.9-3.3-3.7-5.5c-0.2-0.5-0.6-0.9-0.8-1.3c-1.1-1.8-1.5-3.9-2.3-5.8
		c-1.1-2.6-1.2-5.4-1.4-8.1c-0.1-1.7,0.1-3.4,0.2-5.2c0-0.6,0.1-1.2,0.1-1.8c0-0.7,0.4-0.9,1-1c0.6-0.1,0.6,0.4,0.8,0.8
		c0.9,2.4,1.7,4.7,2.9,7c0.9,1.8,2,3.4,3.1,5.1C23.8,33.3,23.9,33.5,24.3,33.5"/>
	<path d="M64.4,67.5c-1,1.2-2.2,2-3.5,2.9c-2.2,1.5-4.7,2.6-7.6,2.6c-0.5,0-1.1,0.1-1.2-0.6c-0.1-0.6,0.4-0.9,0.8-1.1
		c0.5-0.4,1.2-0.5,1.8-0.6c3.1-0.4,5.4-2.2,7.4-4.5c0.2-0.2,0.3-0.5,0.5-0.6c0.6-0.5,0.7-0.9,0-1.5c-0.6-0.4-0.3-0.9,0.2-1.2
		c1.3-0.8,2.7-1.2,4.2-1.4c2.6-0.4,5.1-0.5,7.7-0.1c1.2,0.2,1.9,1.1,3,1.4c0.6,0.2,1.2,0.5,1.8,0.6c1,0.2,1.9,0.7,2.7,1.6
		c0.7,0.7,0.6,1.5,0.3,2.4c-0.2,0.5-0.6,0.8-1.2,0.7c-2.5-0.3-4.6,0.4-6,2.4c-1.2,1.6-2.1,3.3-3,5.2c-1,2.2-2.4,4.3-3.7,6.4
		c-1.2,2-2.4,4.1-3.9,5.9c-3.2,3.8-6.5,7.4-11.1,9.6c-2,0.9-4,1.7-6.2,1.4c-0.2,0-0.4,0-0.6,0c-0.4-0.1-0.9-0.1-0.9-0.6
		c0-0.4,0.4-0.5,0.7-0.6c0.7-0.2,1.5-0.4,2.2-0.7c1.3-0.4,2.7-0.8,4-1.4c3.4-1.7,5.9-4.2,7.4-7.7c0.6-1.5,1.1-3.1,1.4-4.8
		c0.4-2-0.2-3.9-1.3-5.7c-0.5-0.7-1.4-0.7-2.1-0.9c-0.6-0.2-1.3-0.3-1.9-0.4c-0.6-0.2-0.8-0.6-0.7-1.2c0-0.6,0.5-0.7,1-0.7
		c2.5-0.2,4.3-1.8,5.8-3.6C63.1,69.6,64,68.7,64.4,67.5 M70.7,63.6L70.7,63.6c-0.6,0-1.2,0-1.9,0c-2.1,0-2.6,0.5-2.6,2.7
		c0,0.8,0.2,1.6-0.1,2.3c-0.5,1.1-0.5,2.3-0.5,3.4c0,0.9,0.3,1.7,1.2,2c0.8,0.3,1.6,0.1,2.3-0.5c1.1-0.9,1.7-2.1,1.9-3.4
		c0.3-1.6,0.7-3.1,2.4-3.8c0.1,0,0.1-0.1,0.1-0.1c0.6-0.6,0.4-1.4,0.3-2.1c-0.1-0.6-0.8-0.4-1.2-0.4C72,63.6,71.4,63.6,70.7,63.6"/>
	<path d="M41.1,65.5c-1.9-0.5-3.8-0.5-5.7-1c-3.1-0.7-5.9-1.9-8.7-3.3c-1.8-0.9-3.2-2.3-4.7-3.7c-3.1-3-5.1-6.6-6.3-10.7
		c-0.3-1-0.2-2.1-0.6-3.1c-0.1-0.4-0.2-0.8,0.3-1c0.4-0.2,0.7,0.1,1.1,0.3c0.8,0.7,1.1,1.8,1.9,2.6c1.8,1.9,3.6,3.9,6.1,5
		c0.6,0.3,0.8,1.3,0.6,1.9c-0.2,0.4-0.5,0.4-0.8,0.3c-0.6-0.2-1.5-0.6-1.8-0.2c-0.4,0.6,0.5,1.1,0.8,1.6c2.6,4.1,6.5,6.3,11.1,7.5
		c2.6,0.7,5.3,1.4,8,1.8c0.5,0.1,0.7,0.4,0.8,0.9c0.1,0.5-0.2,0.7-0.6,0.9C42,65.6,41.6,65.5,41.1,65.5"/>
	<path d="M33.7,69.5c-3.5,0.2-6.6-0.6-9.5-1.9c-2.5-1.1-4.6-2.8-6.4-5c-1-1.2-1.8-2.5-2.6-3.9c-0.3-0.5-0.5-1.1,0-1.5
		c0.5-0.5,1-0.1,1.4,0.2c1.6,1.6,3.7,2.1,5.6,3.1c0.3,0.1,0.6,0.2,0.9,0.2c0.6,0,1.1,0.3,1.5,0.8c0.7,0.7,0.5,1.5-0.5,1.7
		c-0.2,0.1-0.6,0-0.7,0.3c-0.1,0.3,0.2,0.4,0.4,0.6c2,1.6,4.4,2.3,6.9,2.8c2.6,0.5,5.2,0.5,7.8-0.1c0.8-0.2,1.7-0.1,2.5,0
		c0.5,0,0.9,0.2,0.9,0.8c0,0.6-0.4,0.8-0.9,0.9C38.6,69,36.1,69.9,33.7,69.5"/>
	<path d="M31.4,76.8c-2.2,0.2-4.1-0.6-6-1.3c-2.5-0.9-4.4-2.5-6.2-4.3c-0.6-0.6-1.3-1-1.5-1.9c-0.1-0.4-0.1-0.9,0.3-1.2
		c0.4-0.3,0.7-0.1,1.1,0.1c2.1,1,4.3,1.8,6.8,1.7c0.5,0,1.2-0.1,1.4,0.6c0.2,0.7-0.2,1.2-0.7,1.6c-0.2,0.2-0.6,0.1-0.5,0.5
		c0.1,0.2,0.4,0.2,0.6,0.3c4.7,2.5,9.3,1.1,13.8-0.7c0.6-0.2,1.2-0.6,1.8-0.8c0.3-0.2,0.7-0.2,1,0.2c0.3,0.4,0.1,0.8-0.2,1.1
		c-1.3,1.3-2.9,2.2-4.7,2.6c-1,0.3-2,0.7-3,1C34.1,76.6,32.8,76.9,31.4,76.8"/>
	<path d="M30.1,83.5c-3.3-0.2-6.3-1.2-8.9-3.3c-0.3-0.2-0.7-0.4-1-0.6c-0.6-0.4-0.7-1-0.5-1.6c0.2-0.7,0.8-0.6,1.3-0.4
		c1.4,0.6,2.8,0.6,4.2,0.7c0.5,0,1-0.2,1.5-0.3c0.5-0.1,0.9-0.1,1.3,0.3c0.4,0.4,0.2,0.9-0.1,1.3c-0.6,0.7-0.2,0.8,0.5,1
		c4.2,1.3,7.7-0.3,11-2.6c0.5-0.3,0.9-0.7,1.3-1c0.4-0.3,0.7-0.5,1.1-0.2c0.4,0.4,0.4,0.9,0,1.3c-0.7,0.8-1.5,1.6-2.5,2.2
		c-1.3,0.8-2.5,1.7-3.9,2.2c-0.1,0-0.2,0.1-0.3,0.1C33.5,82.6,31.9,83.7,30.1,83.5"/>
	<path d="M31.4,89.1c-2.1,0.2-4-0.7-5.8-1.6c-0.3-0.2-0.6-0.5-0.9-0.8c-0.3-0.3-0.3-0.6-0.1-1c0.2-0.3,0.4-0.5,0.8-0.5
		c1.5,0.2,3,0,4.5-0.5c1.1-0.3,1.5,0,1.4,1.2c0,0.6,0.3,0.7,0.8,0.8c1.6,0.2,2.9-0.4,4.3-1.1c1.8-0.9,3.1-2.3,4.5-3.6
		c0.3-0.3,0.7-0.5,1-0.2c0.4,0.4,0.3,0.9,0,1.2c-1,1.1-1.8,2.5-3.1,3.3c-1.6,1-3.2,2-5,2.5C33,89.2,32.2,89.1,31.4,89.1"/>
	<path d="M33.7,94.4c-0.6,0-1.2,0-1.8-0.1c-0.5-0.1-1-0.2-0.9-0.9c0.1-0.6,0.1-1.3,0.9-1.3c1.1,0,2-0.6,2.9-1.2
		c0.6-0.4,1.2-0.5,1.4,0.4c0.1,0.4,0.4,0.3,0.7,0.3c1.6-0.4,2.7-1.7,3.7-2.9c0.6-0.8,1-1.7,1.5-2.5c0.2-0.3,0.5-0.7,0.9-0.6
		c0.5,0.2,0.3,0.7,0.2,1c-0.4,2-1.4,3.6-2.8,5C38.2,93.8,36.8,94.4,33.7,94.4"/>
</g>
</svg>
