<?xml version="1.0" encoding="utf-8"?>
<!-- Generator: Adobe Illustrator 22.1.0, SVG Export Plug-In . SVG Version: 6.00 Build 0)  -->
<svg version="1.1" id="Layer_1" xmlns="http://www.w3.org/2000/svg" xmlns:xlink="http://www.w3.org/1999/xlink" x="0px" y="0px"
	 viewBox="0 0 411 93.3" style="enable-background:new 0 0 411 93.3;" xml:space="preserve">
<style type="text/css">
	.st0{fill:#3B8F86;}
	.st1{fill:#009192;stroke:#009192;stroke-width:3.4148;}
	.st2{fill:#009091;stroke:#009091;stroke-width:3.4148;}
	.st3{fill:#008F90;stroke:#008F90;stroke-width:3.4148;}
	.st4{fill:#008E8F;stroke:#008E8F;stroke-width:3.4148;}
	.st5{fill:#009293;stroke:#009293;stroke-width:3.4148;}
	.st6{fill:#008D8E;stroke:#008D8E;stroke-width:3.4148;}
	.st7{fill:#008B8C;stroke:#008B8C;stroke-width:3.4148;}
	.st8{fill:#008C8D;stroke:#008C8D;stroke-width:3.4148;}
	.st9{fill:#008989;stroke:#008989;stroke-width:3.4148;}
	.st10{fill:#008888;stroke:#008888;stroke-width:3.4148;}
	.st11{fill:#008B8B;stroke:#008B8B;stroke-width:3.4148;}
	.st12{fill:#008A8A;stroke:#008A8A;stroke-width:3.4148;}
	.st13{fill:#008788;stroke:#008788;stroke-width:3.4148;}
	.st14{fill:#008A8B;stroke:#008A8B;stroke-width:3.4148;}
	.st15{fill:#008687;stroke:#008687;stroke-width:3.4148;}
	.st16{fill:#008889;stroke:#008889;stroke-width:3.4148;}
	.st17{fill:#008485;stroke:#008485;stroke-width:3.4148;}
	.st18{fill:#007F80;stroke:#007F80;stroke-width:3.4148;}
	.st19{fill:#008384;stroke:#008384;stroke-width:3.4148;}
	.st20{fill:#008586;stroke:#008586;stroke-width:3.4148;}
	.st21{fill:#008081;stroke:#008081;stroke-width:3.4148;}
	.st22{fill:#008181;stroke:#008181;stroke-width:3.4148;}
	.st23{fill:#00898A;stroke:#00898A;stroke-width:3.4148;}
	.st24{fill:#008282;stroke:#008282;stroke-width:3.4148;}
	.st25{fill:#007E7F;stroke:#007E7F;stroke-width:3.4148;}
	.st26{fill:#008283;stroke:#008283;stroke-width:3.4148;}
	.st27{fill:#008182;stroke:#008182;stroke-width:3.4148;}
	.st28{fill:#008080;stroke:#008080;stroke-width:3.4148;}
	.st29{fill:#007A7A;stroke:#007A7A;stroke-width:3.4148;}
	.st30{fill:#007C7C;stroke:#007C7C;stroke-width:3.4148;}
	.st31{fill:#007D7E;stroke:#007D7E;stroke-width:3.4148;}
	.st32{fill:#007C7D;stroke:#007C7D;stroke-width:3.4148;}
	.st33{fill:#007B7C;stroke:#007B7C;stroke-width:3.4148;}
	.st34{fill:#007B7B;stroke:#007B7B;stroke-width:3.4148;}
	.st35{fill:#007A7B;stroke:#007A7B;stroke-width:3.4148;}
	.st36{fill:#007778;stroke:#007778;stroke-width:3.4148;}
	.st37{fill:#007677;stroke:#007677;stroke-width:3.4148;}
	.st38{fill:#007273;stroke:#007273;stroke-width:3.4148;}
	.st39{fill:#007475;stroke:#007475;stroke-width:3.4148;}
	.st40{fill:#007979;stroke:#007979;stroke-width:3.4148;}
	.st41{fill:#007576;stroke:#007576;stroke-width:3.4148;}
	.st42{fill:#007878;stroke:#007878;stroke-width:3.4148;}
	.st43{fill:#007172;stroke:#007172;stroke-width:3.4148;}
	.st44{fill:#00797A;stroke:#00797A;stroke-width:3.4148;}
	.st45{fill:#007474;stroke:#007474;stroke-width:3.4148;}
	.st46{fill:#006E6F;stroke:#006E6F;stroke-width:3.4148;}
	.st47{fill:#007373;stroke:#007373;stroke-width:3.4148;}
	.st48{fill:#006F70;stroke:#006F70;stroke-width:3.4148;}
	.st49{fill:#007171;stroke:#007171;stroke-width:3.4148;}
	.st50{fill:#007879;stroke:#007879;stroke-width:3.4148;}
	.st51{fill:#007272;stroke:#007272;stroke-width:3.4148;}
	.st52{fill:#007374;stroke:#007374;stroke-width:3.4148;}
	.st53{fill:#007070;stroke:#007070;stroke-width:3.4148;}
	.st54{fill:#006A6B;stroke:#006A6B;stroke-width:3.4148;}
	.st55{fill:#006E6E;stroke:#006E6E;stroke-width:3.4148;}
	.st56{fill:#006C6C;stroke:#006C6C;stroke-width:3.4148;}
	.st57{fill:#006D6E;stroke:#006D6E;stroke-width:3.4148;}
	.st58{fill:#007071;stroke:#007071;stroke-width:3.4148;}
	.st59{fill:#006A6A;stroke:#006A6A;stroke-width:3.4148;}
	.st60{fill:#006868;stroke:#006868;stroke-width:3.4148;}
	.st61{fill:#006B6B;stroke:#006B6B;stroke-width:3.4148;}
	.st62{fill:#006768;stroke:#006768;stroke-width:3.4148;}
	.st63{fill:#006B6C;stroke:#006B6C;stroke-width:3.4148;}
	.st64{fill:#00696A;stroke:#00696A;stroke-width:3.4148;}
	.st65{fill:#006D6D;stroke:#006D6D;stroke-width:3.4148;}
	.st66{fill:#006767;stroke:#006767;stroke-width:3.4148;}
	.st67{fill:#006C6D;stroke:#006C6D;stroke-width:3.4148;}
	.st68{fill:#006465;stroke:#006465;stroke-width:3.4148;}
	.st69{fill:#006666;stroke:#006666;stroke-width:3.4148;}
	.st70{fill:#006869;stroke:#006869;stroke-width:3.4148;}
	.st71{fill:#006969;stroke:#006969;stroke-width:3.4148;}
	.st72{fill:#006363;stroke:#006363;stroke-width:3.4148;}
	.st73{fill:#006464;stroke:#006464;stroke-width:3.4148;}
	.st74{fill:#006161;stroke:#006161;stroke-width:3.4148;}
	.st75{fill:#006565;stroke:#006565;stroke-width:3.4148;}
	.st76{fill:#005E5F;stroke:#005E5F;stroke-width:3.4148;}
	.st77{fill:#006262;stroke:#006262;stroke-width:3.4148;}
	.st78{fill:#006060;stroke:#006060;stroke-width:3.4148;}
	.st79{fill:#005F60;stroke:#005F60;stroke-width:3.4148;}
	.st80{fill:#005C5C;stroke:#005C5C;stroke-width:3.4148;}
	.st81{fill:#005E5E;stroke:#005E5E;stroke-width:3.4148;}
	.st82{fill:#005B5B;stroke:#005B5B;stroke-width:3.4148;}
	.st83{fill:#006162;stroke:#006162;stroke-width:3.4148;}
	.st84{fill:#006263;stroke:#006263;stroke-width:3.4148;}
	.st85{fill:#005D5D;stroke:#005D5D;stroke-width:3.4148;}
	.st86{fill:#005858;stroke:#005858;stroke-width:3.4148;}
	.st87{fill:#006364;stroke:#006364;stroke-width:3.4148;}
	.st88{fill:#006061;stroke:#006061;stroke-width:3.4148;}
	.st89{fill:#00595A;stroke:#00595A;stroke-width:3.4148;}
	.st90{fill:#005A5A;stroke:#005A5A;stroke-width:3.4148;}
	.st91{fill:#005454;stroke:#005454;stroke-width:3.4148;}
	.st92{fill:#005758;stroke:#005758;stroke-width:3.4148;}
	.st93{fill:#005353;stroke:#005353;stroke-width:3.4148;}
	.st94{fill:#005757;stroke:#005757;stroke-width:3.4148;}
	.st95{fill:#005555;stroke:#005555;stroke-width:3.4148;}
	.st96{fill:#004E4E;stroke:#004E4E;stroke-width:3.4148;}
	.st97{fill:#005656;stroke:#005656;stroke-width:3.4148;}
	.st98{fill:#005152;stroke:#005152;stroke-width:3.4148;}
	.st99{fill:#005050;stroke:#005050;stroke-width:3.4148;}
	.st100{fill:#005657;stroke:#005657;stroke-width:3.4148;}
	.st101{fill:#005F5F;stroke:#005F5F;stroke-width:3.4148;}
	.st102{fill:#005859;stroke:#005859;stroke-width:3.4148;}
	.st103{fill:#005959;stroke:#005959;stroke-width:3.4148;}
	.st104{fill:#004F4F;stroke:#004F4F;stroke-width:3.4148;}
	.st105{fill:#004C4C;stroke:#004C4C;stroke-width:3.4148;}
	.st106{fill:#004B4B;stroke:#004B4B;stroke-width:3.4148;}
	.st107{fill:#004545;stroke:#004545;stroke-width:3.4148;}
	.st108{fill:#004C4D;stroke:#004C4D;stroke-width:3.4148;}
	.st109{fill:#004D4D;stroke:#004D4D;stroke-width:3.4148;}
	.st110{fill:#005151;stroke:#005151;stroke-width:3.4148;}
	.st111{fill:#004949;stroke:#004949;stroke-width:3.4148;}
	.st112{fill:#004646;stroke:#004646;stroke-width:3.4148;}
	.st113{fill:#004A4A;stroke:#004A4A;stroke-width:3.4148;}
	.st114{fill:#004444;stroke:#004444;stroke-width:3.4148;}
	.st115{fill:#004848;stroke:#004848;stroke-width:3.4148;}
	.st116{fill:#003E3E;stroke:#003E3E;stroke-width:3.4148;}
	.st117{fill:#004747;stroke:#004747;stroke-width:3.4148;}
	.st118{fill:#005051;stroke:#005051;stroke-width:3.4148;}
	.st119{fill:#004343;stroke:#004343;stroke-width:3.4148;}
	.st120{fill:#005252;stroke:#005252;stroke-width:3.4148;}
	.st121{fill:#003939;stroke:#003939;stroke-width:3.4148;}
	.st122{fill:#003F3F;stroke:#003F3F;stroke-width:3.4148;}
	.st123{fill:#004141;stroke:#004141;stroke-width:3.4148;}
	.st124{fill:#003C3B;stroke:#003C3B;stroke-width:3.4148;}
	.st125{fill:#003D3D;stroke:#003D3D;stroke-width:3.4148;}
	.st126{fill:#003130;stroke:#003130;stroke-width:3.4148;}
	.st127{fill:#004242;stroke:#004242;stroke-width:3.4148;}
	.st128{fill:#003E3D;stroke:#003E3D;stroke-width:3.4148;}
	.st129{fill:#003A39;stroke:#003A39;stroke-width:3.4148;}
	.st130{fill:#002120;stroke:#002120;stroke-width:3.4148;}
	.st131{fill:#003A3A;stroke:#003A3A;stroke-width:3.4148;}
	.st132{fill:#002E2E;stroke:#002E2E;stroke-width:3.4148;}
	.st133{fill:#003534;stroke:#003534;stroke-width:3.4148;}
	.st134{fill:#003C3C;stroke:#003C3C;stroke-width:3.4148;}
	.st135{fill:#003332;stroke:#003332;stroke-width:3.4148;}
	.st136{fill:#002322;stroke:#002322;stroke-width:3.4148;}
	.st137{fill:#00302F;stroke:#00302F;stroke-width:3.4148;}
	.st138{fill:#002625;stroke:#002625;stroke-width:3.4148;}
	.st139{fill:#004040;stroke:#004040;stroke-width:3.4148;}
	.st140{fill:#002E2D;stroke:#002E2D;stroke-width:3.4148;}
	.st141{fill:#003333;stroke:#003333;stroke-width:3.4148;}
	.st142{fill:#003635;stroke:#003635;stroke-width:3.4148;}
	.st143{fill:#003131;stroke:#003131;stroke-width:3.4148;}
	.st144{fill:#001B19;stroke:#001B19;stroke-width:3.4148;}
	.st145{fill:#002221;stroke:#002221;stroke-width:3.4148;}
	.st146{fill:#00100E;stroke:#00100E;stroke-width:3.4148;}
	.st147{fill:#002F2F;stroke:#002F2F;stroke-width:3.4148;}
	.st148{fill:#001513;stroke:#001513;stroke-width:3.4148;}
	.st149{fill:#003838;stroke:#003838;stroke-width:3.4148;}
	.st150{fill:#003B3B;stroke:#003B3B;stroke-width:3.4148;}
	.st151{fill:#001412;stroke:#001412;stroke-width:3.4148;}
	.st152{fill:#00201F;stroke:#00201F;stroke-width:3.4148;}
	.st153{fill:#002726;stroke:#002726;stroke-width:3.4148;}
	.st154{fill:#002928;stroke:#002928;stroke-width:3.4148;}
	.st155{fill:#002727;stroke:#002727;stroke-width:3.4148;}
	.st156{fill:#002C2B;stroke:#002C2B;stroke-width:3.4148;}
	.st157{fill:#003232;stroke:#003232;stroke-width:3.4148;}
	.st158{fill:#003636;stroke:#003636;stroke-width:3.4148;}
	.st159{fill:#003837;stroke:#003837;stroke-width:3.4148;}
	.st160{fill:#001F1E;stroke:#001F1E;stroke-width:3.4148;}
	.st161{fill:#002A29;stroke:#002A29;stroke-width:3.4148;}
	.st162{fill:#001C1B;stroke:#001C1B;stroke-width:3.4148;}
	.st163{fill:#002B2B;stroke:#002B2B;stroke-width:3.4148;}
	.st164{fill:#001311;stroke:#001311;stroke-width:3.4148;}
	.st165{fill:#001D1C;stroke:#001D1C;stroke-width:3.4148;}
	.st166{fill:#002A2A;stroke:#002A2A;stroke-width:3.4148;}
	.st167{fill:#001E1D;stroke:#001E1D;stroke-width:3.4148;}
	.st168{fill:#002827;stroke:#002827;stroke-width:3.4148;}
	.st169{fill:#001816;stroke:#001816;stroke-width:3.4148;}
	.st170{fill:#00120F;stroke:#00120F;stroke-width:3.4148;}
	.st171{fill:#001A18;stroke:#001A18;stroke-width:3.4148;}
	.st172{fill:#002D2C;stroke:#002D2C;stroke-width:3.4148;}
	.st173{fill:#002524;stroke:#002524;stroke-width:3.4148;}
	.st174{fill:#001917;stroke:#001917;stroke-width:3.4148;}
	.st175{fill:#001715;stroke:#001715;stroke-width:3.4148;}
	.st176{fill:#003434;stroke:#003434;stroke-width:3.4148;}
	.st177{fill:#002423;stroke:#002423;stroke-width:3.4148;}
	.st178{fill:#003737;stroke:#003737;stroke-width:3.4148;}
	.st179{opacity:0.4;fill:#FFFFFF;}
	.st180{fill:#009999;stroke:#009999;stroke-width:29;stroke-miterlimit:10;}
	.st181{fill:#1EB1AA;}
	.st182{fill:#E6E7E8;}
	.st183{fill:#009192;stroke:#009192;stroke-width:5.2707;}
	.st184{fill:#009091;stroke:#009091;stroke-width:5.2707;}
	.st185{fill:#008F90;stroke:#008F90;stroke-width:5.2707;}
	.st186{fill:#008E8F;stroke:#008E8F;stroke-width:5.2707;}
	.st187{fill:#009293;stroke:#009293;stroke-width:5.2707;}
	.st188{fill:#008D8E;stroke:#008D8E;stroke-width:5.2707;}
	.st189{fill:#008B8C;stroke:#008B8C;stroke-width:5.2707;}
	.st190{fill:#008C8D;stroke:#008C8D;stroke-width:5.2707;}
	.st191{fill:#008989;stroke:#008989;stroke-width:5.2707;}
	.st192{fill:#008888;stroke:#008888;stroke-width:5.2707;}
	.st193{fill:#008B8B;stroke:#008B8B;stroke-width:5.2707;}
	.st194{fill:#008A8A;stroke:#008A8A;stroke-width:5.2707;}
	.st195{fill:#008788;stroke:#008788;stroke-width:5.2707;}
	.st196{fill:#008A8B;stroke:#008A8B;stroke-width:5.2707;}
	.st197{fill:#008687;stroke:#008687;stroke-width:5.2707;}
	.st198{fill:#008889;stroke:#008889;stroke-width:5.2707;}
	.st199{fill:#008485;stroke:#008485;stroke-width:5.2707;}
	.st200{fill:#007F80;stroke:#007F80;stroke-width:5.2707;}
	.st201{fill:#008384;stroke:#008384;stroke-width:5.2707;}
	.st202{fill:#008586;stroke:#008586;stroke-width:5.2707;}
	.st203{fill:#008081;stroke:#008081;stroke-width:5.2707;}
	.st204{fill:#008181;stroke:#008181;stroke-width:5.2707;}
	.st205{fill:#00898A;stroke:#00898A;stroke-width:5.2707;}
	.st206{fill:#008282;stroke:#008282;stroke-width:5.2707;}
	.st207{fill:#007E7F;stroke:#007E7F;stroke-width:5.2707;}
	.st208{fill:#008283;stroke:#008283;stroke-width:5.2707;}
	.st209{fill:#008182;stroke:#008182;stroke-width:5.2707;}
	.st210{fill:#008080;stroke:#008080;stroke-width:5.2707;}
	.st211{fill:#007A7A;stroke:#007A7A;stroke-width:5.2707;}
	.st212{fill:#007C7C;stroke:#007C7C;stroke-width:5.2707;}
	.st213{fill:#007D7E;stroke:#007D7E;stroke-width:5.2707;}
	.st214{fill:#007C7D;stroke:#007C7D;stroke-width:5.2707;}
	.st215{fill:#007B7C;stroke:#007B7C;stroke-width:5.2707;}
	.st216{fill:#007B7B;stroke:#007B7B;stroke-width:5.2707;}
	.st217{fill:#007A7B;stroke:#007A7B;stroke-width:5.2707;}
	.st218{fill:#007778;stroke:#007778;stroke-width:5.2707;}
	.st219{fill:#007677;stroke:#007677;stroke-width:5.2707;}
	.st220{fill:#007273;stroke:#007273;stroke-width:5.2707;}
	.st221{fill:#007475;stroke:#007475;stroke-width:5.2707;}
	.st222{fill:#007979;stroke:#007979;stroke-width:5.2707;}
	.st223{fill:#007576;stroke:#007576;stroke-width:5.2707;}
	.st224{fill:#007878;stroke:#007878;stroke-width:5.2707;}
	.st225{fill:#007172;stroke:#007172;stroke-width:5.2707;}
	.st226{fill:#00797A;stroke:#00797A;stroke-width:5.2707;}
	.st227{fill:#007474;stroke:#007474;stroke-width:5.2707;}
	.st228{fill:#006E6F;stroke:#006E6F;stroke-width:5.2707;}
	.st229{fill:#007373;stroke:#007373;stroke-width:5.2707;}
	.st230{fill:#006F70;stroke:#006F70;stroke-width:5.2707;}
	.st231{fill:#007171;stroke:#007171;stroke-width:5.2707;}
	.st232{fill:#007879;stroke:#007879;stroke-width:5.2707;}
	.st233{fill:#007272;stroke:#007272;stroke-width:5.2707;}
	.st234{fill:#007374;stroke:#007374;stroke-width:5.2707;}
	.st235{fill:#007070;stroke:#007070;stroke-width:5.2707;}
	.st236{fill:#006A6B;stroke:#006A6B;stroke-width:5.2707;}
	.st237{fill:#006E6E;stroke:#006E6E;stroke-width:5.2707;}
	.st238{fill:#006C6C;stroke:#006C6C;stroke-width:5.2707;}
	.st239{fill:#006D6E;stroke:#006D6E;stroke-width:5.2707;}
	.st240{fill:#007071;stroke:#007071;stroke-width:5.2707;}
	.st241{fill:#006A6A;stroke:#006A6A;stroke-width:5.2707;}
	.st242{fill:#006868;stroke:#006868;stroke-width:5.2707;}
	.st243{fill:#006B6B;stroke:#006B6B;stroke-width:5.2707;}
	.st244{fill:#006768;stroke:#006768;stroke-width:5.2707;}
	.st245{fill:#006B6C;stroke:#006B6C;stroke-width:5.2707;}
	.st246{fill:#00696A;stroke:#00696A;stroke-width:5.2707;}
	.st247{fill:#006D6D;stroke:#006D6D;stroke-width:5.2707;}
	.st248{fill:#006767;stroke:#006767;stroke-width:5.2707;}
	.st249{fill:#006C6D;stroke:#006C6D;stroke-width:5.2707;}
	.st250{fill:#006465;stroke:#006465;stroke-width:5.2707;}
	.st251{fill:#006666;stroke:#006666;stroke-width:5.2707;}
	.st252{fill:#006869;stroke:#006869;stroke-width:5.2707;}
	.st253{fill:#006969;stroke:#006969;stroke-width:5.2707;}
	.st254{fill:#006363;stroke:#006363;stroke-width:5.2707;}
	.st255{fill:#006464;stroke:#006464;stroke-width:5.2707;}
	.st256{fill:#006161;stroke:#006161;stroke-width:5.2707;}
	.st257{fill:#006565;stroke:#006565;stroke-width:5.2707;}
	.st258{fill:#005E5F;stroke:#005E5F;stroke-width:5.2707;}
	.st259{fill:#006262;stroke:#006262;stroke-width:5.2707;}
	.st260{fill:#006060;stroke:#006060;stroke-width:5.2707;}
	.st261{fill:#005F60;stroke:#005F60;stroke-width:5.2707;}
	.st262{fill:#005C5C;stroke:#005C5C;stroke-width:5.2707;}
	.st263{fill:#005E5E;stroke:#005E5E;stroke-width:5.2707;}
	.st264{fill:#005B5B;stroke:#005B5B;stroke-width:5.2707;}
	.st265{fill:#006162;stroke:#006162;stroke-width:5.2707;}
	.st266{fill:#006263;stroke:#006263;stroke-width:5.2707;}
	.st267{fill:#005D5D;stroke:#005D5D;stroke-width:5.2707;}
	.st268{fill:#005858;stroke:#005858;stroke-width:5.2707;}
	.st269{fill:#006364;stroke:#006364;stroke-width:5.2707;}
	.st270{fill:#006061;stroke:#006061;stroke-width:5.2707;}
	.st271{fill:#00595A;stroke:#00595A;stroke-width:5.2707;}
	.st272{fill:#005A5A;stroke:#005A5A;stroke-width:5.2707;}
	.st273{fill:#005454;stroke:#005454;stroke-width:5.2707;}
	.st274{fill:#005758;stroke:#005758;stroke-width:5.2707;}
	.st275{fill:#005353;stroke:#005353;stroke-width:5.2707;}
	.st276{fill:#005757;stroke:#005757;stroke-width:5.2707;}
	.st277{fill:#005555;stroke:#005555;stroke-width:5.2707;}
	.st278{fill:#004E4E;stroke:#004E4E;stroke-width:5.2707;}
	.st279{fill:#005656;stroke:#005656;stroke-width:5.2707;}
	.st280{fill:#005152;stroke:#005152;stroke-width:5.2707;}
	.st281{fill:#005050;stroke:#005050;stroke-width:5.2707;}
	.st282{fill:#005657;stroke:#005657;stroke-width:5.2707;}
	.st283{fill:#005F5F;stroke:#005F5F;stroke-width:5.2707;}
	.st284{fill:#005859;stroke:#005859;stroke-width:5.2707;}
	.st285{fill:#005959;stroke:#005959;stroke-width:5.2707;}
	.st286{fill:#004F4F;stroke:#004F4F;stroke-width:5.2707;}
	.st287{fill:#004C4C;stroke:#004C4C;stroke-width:5.2707;}
	.st288{fill:#004B4B;stroke:#004B4B;stroke-width:5.2707;}
	.st289{fill:#004545;stroke:#004545;stroke-width:5.2707;}
	.st290{fill:#004C4D;stroke:#004C4D;stroke-width:5.2707;}
	.st291{fill:#004D4D;stroke:#004D4D;stroke-width:5.2707;}
	.st292{fill:#005151;stroke:#005151;stroke-width:5.2707;}
	.st293{fill:#004949;stroke:#004949;stroke-width:5.2707;}
	.st294{fill:#004646;stroke:#004646;stroke-width:5.2707;}
	.st295{fill:#004A4A;stroke:#004A4A;stroke-width:5.2707;}
	.st296{fill:#004444;stroke:#004444;stroke-width:5.2707;}
	.st297{fill:#004848;stroke:#004848;stroke-width:5.2707;}
	.st298{fill:#003E3E;stroke:#003E3E;stroke-width:5.2707;}
	.st299{fill:#004747;stroke:#004747;stroke-width:5.2707;}
	.st300{fill:#005051;stroke:#005051;stroke-width:5.2707;}
	.st301{fill:#004343;stroke:#004343;stroke-width:5.2707;}
	.st302{fill:#005252;stroke:#005252;stroke-width:5.2707;}
	.st303{fill:#003939;stroke:#003939;stroke-width:5.2707;}
	.st304{fill:#003F3F;stroke:#003F3F;stroke-width:5.2707;}
	.st305{fill:#004141;stroke:#004141;stroke-width:5.2707;}
	.st306{fill:#003C3B;stroke:#003C3B;stroke-width:5.2707;}
	.st307{fill:#003D3D;stroke:#003D3D;stroke-width:5.2707;}
	.st308{fill:#003130;stroke:#003130;stroke-width:5.2707;}
	.st309{fill:#004242;stroke:#004242;stroke-width:5.2707;}
	.st310{fill:#003E3D;stroke:#003E3D;stroke-width:5.2707;}
	.st311{fill:#003A39;stroke:#003A39;stroke-width:5.2707;}
	.st312{fill:#002120;stroke:#002120;stroke-width:5.2707;}
	.st313{fill:#003A3A;stroke:#003A3A;stroke-width:5.2707;}
	.st314{fill:#002E2E;stroke:#002E2E;stroke-width:5.2707;}
	.st315{fill:#003534;stroke:#003534;stroke-width:5.2707;}
	.st316{fill:#003C3C;stroke:#003C3C;stroke-width:5.2707;}
	.st317{fill:#003332;stroke:#003332;stroke-width:5.2707;}
	.st318{fill:#002322;stroke:#002322;stroke-width:5.2707;}
	.st319{fill:#00302F;stroke:#00302F;stroke-width:5.2707;}
	.st320{fill:#002625;stroke:#002625;stroke-width:5.2707;}
	.st321{fill:#004040;stroke:#004040;stroke-width:5.2707;}
	.st322{fill:#002E2D;stroke:#002E2D;stroke-width:5.2707;}
	.st323{fill:#003333;stroke:#003333;stroke-width:5.2707;}
	.st324{fill:#003635;stroke:#003635;stroke-width:5.2707;}
	.st325{fill:#003131;stroke:#003131;stroke-width:5.2707;}
	.st326{fill:#001B19;stroke:#001B19;stroke-width:5.2707;}
	.st327{fill:#002221;stroke:#002221;stroke-width:5.2707;}
	.st328{fill:#00100E;stroke:#00100E;stroke-width:5.2707;}
	.st329{fill:#002F2F;stroke:#002F2F;stroke-width:5.2707;}
	.st330{fill:#001513;stroke:#001513;stroke-width:5.2707;}
	.st331{fill:#003838;stroke:#003838;stroke-width:5.2707;}
	.st332{fill:#003B3B;stroke:#003B3B;stroke-width:5.2707;}
	.st333{fill:#001412;stroke:#001412;stroke-width:5.2707;}
	.st334{fill:#00201F;stroke:#00201F;stroke-width:5.2707;}
	.st335{fill:#002726;stroke:#002726;stroke-width:5.2707;}
	.st336{fill:#002928;stroke:#002928;stroke-width:5.2707;}
	.st337{fill:#002727;stroke:#002727;stroke-width:5.2707;}
	.st338{fill:#002C2B;stroke:#002C2B;stroke-width:5.2707;}
	.st339{fill:#003232;stroke:#003232;stroke-width:5.2707;}
	.st340{fill:#003636;stroke:#003636;stroke-width:5.2707;}
	.st341{fill:#003837;stroke:#003837;stroke-width:5.2707;}
	.st342{fill:#001F1E;stroke:#001F1E;stroke-width:5.2707;}
	.st343{fill:#002A29;stroke:#002A29;stroke-width:5.2707;}
	.st344{fill:#001C1B;stroke:#001C1B;stroke-width:5.2707;}
	.st345{fill:#002B2B;stroke:#002B2B;stroke-width:5.2707;}
	.st346{fill:#001311;stroke:#001311;stroke-width:5.2707;}
	.st347{fill:#001D1C;stroke:#001D1C;stroke-width:5.2707;}
	.st348{fill:#002A2A;stroke:#002A2A;stroke-width:5.2707;}
	.st349{fill:#001E1D;stroke:#001E1D;stroke-width:5.2707;}
	.st350{fill:#002827;stroke:#002827;stroke-width:5.2707;}
	.st351{fill:#001816;stroke:#001816;stroke-width:5.2707;}
	.st352{fill:#00120F;stroke:#00120F;stroke-width:5.2707;}
	.st353{fill:#001A18;stroke:#001A18;stroke-width:5.2707;}
	.st354{fill:#002D2C;stroke:#002D2C;stroke-width:5.2707;}
	.st355{fill:#002524;stroke:#002524;stroke-width:5.2707;}
	.st356{fill:#001917;stroke:#001917;stroke-width:5.2707;}
	.st357{fill:#001715;stroke:#001715;stroke-width:5.2707;}
	.st358{fill:#003434;stroke:#003434;stroke-width:5.2707;}
	.st359{fill:#002423;stroke:#002423;stroke-width:5.2707;}
	.st360{fill:#003737;stroke:#003737;stroke-width:5.2707;}
	.st361{fill:#E7EAED;}
	.st362{fill:#009898;}
	.st363{fill:#FFFFFF;}
	.st364{fill:#333333;}
	.st365{fill:none;stroke:#A6A8AB;stroke-miterlimit:10;}
	.st366{fill:none;stroke:#009898;stroke-width:2.2996;stroke-miterlimit:10;}
	.st367{fill:none;stroke:#FFFFFF;stroke-width:1.3344;stroke-linecap:round;stroke-miterlimit:10;}
	.st368{fill:none;stroke:#FFFFFF;stroke-width:1.3344;stroke-linecap:round;stroke-linejoin:round;stroke-miterlimit:10;}
	.st369{fill:#1D3641;}
	.st370{fill:#8FD3D6;}
	.st371{fill:#27BBB7;}
	.st372{fill:#007D74;}
	.st373{fill:url(#SVGID_1_);}
	.st374{fill:#1D3641;stroke:#009999;stroke-width:2;stroke-linecap:round;stroke-miterlimit:10;}
	.st375{fill:none;stroke:#FFFFFF;stroke-width:3.3855;stroke-linejoin:round;stroke-miterlimit:10;}
	.st376{fill:none;stroke:#FFFFFF;stroke-width:3.3846;stroke-linecap:round;stroke-linejoin:round;stroke-miterlimit:10;}
	.st377{fill:none;stroke:#6FC5C3;stroke-width:3.3846;stroke-linecap:round;stroke-miterlimit:10;}
	.st378{fill:none;stroke:#FFFFFF;stroke-width:3.3855;stroke-miterlimit:10;}
	.st379{fill:none;stroke:#6FC5C3;stroke-width:3.3846;stroke-linecap:round;stroke-linejoin:round;stroke-miterlimit:10;}
	.st380{fill:none;stroke:#FFFFFF;stroke-width:4.2486;stroke-linecap:round;stroke-miterlimit:10;}
	.st381{fill:#FFFFFF;stroke:#FFFFFF;stroke-width:4.2486;stroke-linecap:round;stroke-miterlimit:10;}
	.st382{fill:none;stroke:#FFFFFF;stroke-width:4.2486;stroke-linecap:round;stroke-linejoin:round;stroke-miterlimit:10;}
	.st383{fill:none;stroke:#FFFFFF;stroke-width:7;stroke-linecap:round;stroke-linejoin:round;stroke-miterlimit:10;}
	.st384{opacity:0.9;fill:none;stroke:#FFFFFF;stroke-width:2;stroke-miterlimit:10;}
	.st385{fill:none;stroke:#FFFFFF;stroke-width:4.3205;stroke-linecap:round;stroke-linejoin:round;stroke-miterlimit:10;}
	.st386{fill:none;stroke:#FFFFFF;stroke-width:1.2336;stroke-linecap:round;stroke-miterlimit:10;}
	.st387{fill:none;stroke:#FFFFFF;stroke-width:1.2281;stroke-linecap:round;stroke-linejoin:round;stroke-miterlimit:10;}
	.st388{fill:none;stroke:#FFFFFF;stroke-width:1.2281;stroke-linecap:round;stroke-miterlimit:10;}
	.st389{fill:none;stroke:#FFFFFF;stroke-width:3.3855;stroke-linecap:round;stroke-linejoin:round;stroke-miterlimit:10;}
	.st390{fill:none;stroke:#FFFFFF;stroke-width:3.3878;stroke-linecap:round;stroke-linejoin:round;stroke-miterlimit:10;}
	.st391{fill:none;stroke:#FFFFFF;stroke-width:1.8211;stroke-linecap:round;stroke-linejoin:round;stroke-miterlimit:10;}
	.st392{fill:#BBBDBF;}
	.st393{fill:#85D0D1;}
	.st394{opacity:0.3;}
	.st395{fill:none;stroke:#1C3640;stroke-width:4.0715;stroke-linecap:round;stroke-linejoin:round;stroke-miterlimit:10;}
	
		.st396{opacity:0.3;fill:none;stroke:#1C3640;stroke-width:4.0715;stroke-linecap:round;stroke-linejoin:round;stroke-miterlimit:10;}
	.st397{opacity:0.3;fill:none;stroke:#1D3641;stroke-width:4.0961;stroke-miterlimit:10;stroke-dasharray:16.3846;}
	.st398{fill:none;stroke:#007D74;stroke-width:36.2212;stroke-miterlimit:10;}
	.st399{fill:none;stroke:#404041;stroke-width:4;stroke-miterlimit:10;stroke-dasharray:16.123;}
	.st400{fill:none;stroke:#58595B;stroke-width:36.2212;stroke-miterlimit:10;}
	.st401{fill:none;stroke:#1C3640;stroke-width:5.7015;stroke-linecap:round;stroke-linejoin:round;stroke-miterlimit:10;}
	.st402{fill:#474748;}
	
		.st403{opacity:0.3;fill:none;stroke:#1C3640;stroke-width:6.6761;stroke-linecap:round;stroke-linejoin:round;stroke-miterlimit:10;}
	
		.st404{opacity:0.3;fill:none;stroke:#1C3640;stroke-width:5.2818;stroke-linecap:round;stroke-linejoin:round;stroke-miterlimit:10;}
	.st405{fill:none;stroke:#1C3640;stroke-width:4.7954;stroke-linecap:round;stroke-linejoin:round;stroke-miterlimit:10;}
	.st406{fill:none;stroke:#464646;stroke-width:36.2212;stroke-miterlimit:10;}
	.st407{fill:none;stroke:#009999;stroke-width:36.2212;stroke-miterlimit:10;}
	.st408{fill:none;stroke:#007D74;stroke-width:6.2039;stroke-linecap:round;stroke-linejoin:round;stroke-miterlimit:10;}
	.st409{fill:#009999;stroke:#009999;stroke-width:29.065;stroke-miterlimit:10;}
	.st410{fill:none;stroke:#007D74;stroke-width:29;stroke-miterlimit:10;}
	.st411{fill:none;stroke:#009999;stroke-width:29;stroke-miterlimit:10;}
	.st412{fill:#141414;}
	.st413{fill:url(#SVGID_2_);}
	.st414{fill:#146CED;}
	.st415{fill:#0D2026;}
	.st416{fill:#B12036;}
	.st417{fill:#CE6C28;}
	.st418{fill:none;stroke:#FFFFFF;stroke-width:1.581;stroke-linecap:round;stroke-miterlimit:10;}
	.st419{fill-rule:evenodd;clip-rule:evenodd;}
	.st420{fill-rule:evenodd;clip-rule:evenodd;fill:#FFFFFF;}
	.st421{fill:none;stroke:#FFFFFF;stroke-width:1.581;stroke-linejoin:round;stroke-miterlimit:10;}
	.st422{fill:none;stroke:#FFFFFF;stroke-width:1.581;stroke-miterlimit:10;}
	.st423{fill:none;}
	.st424{fill:#1A58C4;}
	.st425{opacity:0.4;fill:none;stroke:#007D74;stroke-width:2;stroke-linecap:round;stroke-miterlimit:10;}
	.st426{fill:none;stroke:#FFFFFF;stroke-width:1.2797;stroke-linecap:round;stroke-linejoin:round;stroke-miterlimit:10;}
	.st427{fill:none;stroke:#FFFFFF;stroke-width:1.2435;stroke-linecap:round;stroke-linejoin:round;stroke-miterlimit:10;}
	.st428{fill:none;stroke:#FFFFFF;stroke-width:1.581;stroke-linecap:round;stroke-linejoin:round;stroke-miterlimit:10;}
	.st429{fill:#B12036;stroke:#B12036;stroke-width:2;stroke-miterlimit:10;}
	.st430{fill:#157226;}
	.st431{fill:#EFC700;}
	.st432{fill:url(#SVGID_3_);}
	.st433{fill:url(#SVGID_4_);}
	.st434{fill:#2358C1;}
	.st435{fill:none;stroke:#FFFFFF;stroke-width:0.946;stroke-linecap:round;stroke-miterlimit:10;}
	.st436{opacity:0.4;fill:none;stroke:#231F20;stroke-width:2;stroke-linecap:round;stroke-miterlimit:10;}
	.st437{fill:#00840C;}
	.st438{fill:url(#SVGID_5_);}
	.st439{opacity:0.5;fill:#00B5A3;}
	.st440{fill:none;stroke:#6D6E70;stroke-width:4.4112;stroke-linecap:round;stroke-linejoin:round;stroke-miterlimit:10;}
	.st441{fill:url(#SVGID_6_);}
	.st442{fill:url(#SVGID_7_);}
	.st443{fill:#6D6E70;}
	.st444{fill:none;stroke:#FFFFFF;stroke-width:2;stroke-linecap:round;stroke-miterlimit:10;}
	.st445{fill:none;stroke:#FFFFFF;stroke-width:0.7812;stroke-linecap:round;stroke-linejoin:round;stroke-miterlimit:10;}
	.st446{fill:none;stroke:#FFFFFF;stroke-width:0.7812;stroke-linecap:round;stroke-miterlimit:10;}
	.st447{fill:none;stroke:#FFFFFF;stroke-width:0.7237;stroke-linecap:round;stroke-miterlimit:10;}
	.st448{fill:none;stroke:#FFFFFF;stroke-width:0.8768;stroke-linecap:round;stroke-miterlimit:10;}
	.st449{fill:none;stroke:#FFFFFF;stroke-width:0.931;stroke-linecap:round;stroke-miterlimit:10;}
	.st450{fill:url(#SVGID_8_);}
	.st451{fill:url(#SVGID_9_);}
</style>
<g>
	<g>
		<path class="st363" d="M130.1,68V46.9l-8.2,15.7h-3.4l-8.2-15.7V68h-6.2V36.2h6.6l9.4,18.1l9.5-18.1h6.6V68H130.1z"/>
		<path class="st363" d="M148.5,68.4c-1.1,0-2.2-0.2-3.2-0.6c-1-0.4-1.8-0.9-2.6-1.6s-1.3-1.5-1.7-2.4c-0.4-0.9-0.6-1.9-0.6-3
			c0-1.1,0.2-2.1,0.7-3.1c0.5-0.9,1.2-1.7,2.1-2.4c0.9-0.7,1.9-1.2,3.2-1.5c1.2-0.4,2.6-0.6,4-0.6c1,0,2.1,0.1,3.1,0.3
			c1,0.2,1.9,0.4,2.7,0.8v-1.3c0-1.6-0.4-2.7-1.3-3.6c-0.9-0.8-2.2-1.3-3.9-1.3c-1.3,0-2.5,0.2-3.7,0.7c-1.2,0.4-2.4,1.1-3.7,2
			l-1.8-3.8c3-2,6.3-3,9.8-3c3.4,0,6,0.8,7.9,2.5c1.9,1.7,2.8,4.1,2.8,7.2v7.3c0,0.6,0.1,1.1,0.3,1.3c0.2,0.3,0.6,0.4,1.1,0.4V68
			c-1,0.2-1.9,0.3-2.6,0.3c-1.1,0-2-0.3-2.6-0.8c-0.6-0.5-1-1.2-1.1-2l-0.1-1.3c-1,1.4-2.3,2.4-3.8,3.1
			C151.8,68.1,150.2,68.4,148.5,68.4z M150.2,64c1,0,2-0.2,2.9-0.5c0.9-0.4,1.6-0.8,2.1-1.4c0.7-0.5,1-1.1,1-1.7v-2.7
			c-0.7-0.3-1.5-0.5-2.3-0.6c-0.8-0.2-1.6-0.2-2.4-0.2c-1.6,0-2.8,0.4-3.8,1.1c-1,0.7-1.5,1.6-1.5,2.7c0,1,0.4,1.9,1.2,2.5
			C148.1,63.7,149.1,64,150.2,64z"/>
		<path class="st363" d="M181.8,49.7c-1.8,0-3.4,0.4-4.9,1.1c-1.4,0.7-2.5,1.7-3.1,3V68h-6V44.5h5.5v5c0.4-0.8,0.9-1.5,1.5-2.2
			c0.6-0.6,1.2-1.2,1.8-1.7c0.7-0.5,1.3-0.8,2-1.1c0.7-0.3,1.3-0.4,1.9-0.4c0.3,0,0.6,0,0.7,0s0.3,0,0.5,0V49.7z"/>
		<path class="st363" d="M201.2,68l-6.8-10.2l-3.2,3.2v7h-6V35.3h6v19.8l9.4-10.6h6.4l-8.7,9.9l9.4,13.5H201.2z"/>
		<path class="st363" d="M219.8,68.4c-1.9,0-3.6-0.3-5.1-1c-1.5-0.6-2.8-1.5-3.9-2.6c-1.1-1.1-1.9-2.4-2.5-3.9
			c-0.6-1.5-0.9-3-0.9-4.6c0-1.7,0.3-3.2,0.9-4.7c0.6-1.5,1.4-2.8,2.5-3.9c1.1-1.1,2.4-2,3.9-2.7c1.5-0.7,3.3-1,5.2-1s3.6,0.3,5.1,1
			c1.5,0.7,2.8,1.5,3.9,2.6c1.1,1.1,1.9,2.4,2.4,3.9c0.6,1.5,0.8,3,0.8,4.6c0,0.4,0,0.8,0,1.1c0,0.4-0.1,0.7-0.1,0.9h-18.1
			c0.1,0.9,0.3,1.7,0.7,2.5s0.8,1.3,1.4,1.8c0.6,0.5,1.2,0.9,1.9,1.2c0.7,0.3,1.5,0.4,2.2,0.4c1.2,0,2.3-0.3,3.4-0.9
			c1.1-0.6,1.8-1.4,2.2-2.3l5.2,1.4c-0.9,1.8-2.2,3.3-4.1,4.4C224.7,67.9,222.4,68.4,219.8,68.4z M225.9,54.3
			c-0.1-1.8-0.8-3.2-1.9-4.2c-1.2-1.1-2.5-1.6-4.2-1.6c-0.8,0-1.6,0.1-2.3,0.4c-0.7,0.3-1.3,0.7-1.9,1.2c-0.5,0.5-1,1.1-1.3,1.8
			c-0.3,0.7-0.5,1.5-0.6,2.4H225.9z"/>
		<path class="st363" d="M249.6,66.8c-0.8,0.4-1.8,0.7-3,1.1c-1.2,0.4-2.4,0.5-3.7,0.5c-0.8,0-1.6-0.1-2.4-0.3
			c-0.7-0.2-1.4-0.5-1.9-1c-0.6-0.5-1-1.1-1.3-1.8c-0.3-0.7-0.5-1.6-0.5-2.7V49.1h-3.1v-4.6h3.1v-7.6h6v7.6h4.9v4.6h-4.9v11.5
			c0,0.8,0.2,1.4,0.7,1.8c0.4,0.3,1,0.5,1.6,0.5s1.2-0.1,1.8-0.3c0.6-0.2,1.1-0.4,1.4-0.5L249.6,66.8z"/>
		<path class="st363" d="M290,68V46.9l-8.2,15.7h-3.4l-8.2-15.7V68h-6.2V36.2h6.6l9.4,18.1l9.5-18.1h6.6V68H290z"/>
		<path class="st363" d="M308.4,68.4c-1.1,0-2.2-0.2-3.2-0.6c-1-0.4-1.8-0.9-2.6-1.6s-1.3-1.5-1.7-2.4c-0.4-0.9-0.6-1.9-0.6-3
			c0-1.1,0.2-2.1,0.7-3.1c0.5-0.9,1.2-1.7,2.1-2.4c0.9-0.7,1.9-1.2,3.2-1.5c1.2-0.4,2.6-0.6,4-0.6c1,0,2.1,0.1,3.1,0.3
			c1,0.2,1.9,0.4,2.7,0.8v-1.3c0-1.6-0.4-2.7-1.3-3.6c-0.9-0.8-2.2-1.3-3.9-1.3c-1.3,0-2.5,0.2-3.7,0.7c-1.2,0.4-2.4,1.1-3.7,2
			l-1.8-3.8c3-2,6.3-3,9.8-3c3.4,0,6,0.8,7.9,2.5c1.9,1.7,2.8,4.1,2.8,7.2v7.3c0,0.6,0.1,1.1,0.3,1.3c0.2,0.3,0.6,0.4,1.1,0.4V68
			c-1,0.2-1.9,0.3-2.6,0.3c-1.1,0-2-0.3-2.6-0.8c-0.6-0.5-1-1.2-1.1-2l-0.1-1.3c-1,1.4-2.3,2.4-3.8,3.1
			C311.7,68.1,310.1,68.4,308.4,68.4z M310.1,64c1,0,2-0.2,2.9-0.5c0.9-0.4,1.6-0.8,2.1-1.4c0.7-0.5,1-1.1,1-1.7v-2.7
			c-0.7-0.3-1.5-0.5-2.3-0.6c-0.8-0.2-1.6-0.2-2.4-0.2c-1.6,0-2.8,0.4-3.8,1.1c-1,0.7-1.5,1.6-1.5,2.7c0,1,0.4,1.9,1.2,2.5
			C308.1,63.7,309,64,310.1,64z"/>
		<path class="st363" d="M341.7,49.7c-1.8,0-3.4,0.4-4.9,1.1c-1.4,0.7-2.5,1.7-3.1,3V68h-6V44.5h5.5v5c0.4-0.8,0.9-1.5,1.5-2.2
			c0.6-0.6,1.2-1.2,1.8-1.7c0.7-0.5,1.3-0.8,2-1.1c0.7-0.3,1.3-0.4,1.9-0.4c0.3,0,0.6,0,0.7,0s0.3,0,0.5,0V49.7z"/>
		<path class="st363" d="M359.2,66.8c-0.8,0.4-1.8,0.7-3,1.1c-1.2,0.4-2.4,0.5-3.7,0.5c-0.8,0-1.6-0.1-2.4-0.3
			c-0.7-0.2-1.4-0.5-1.9-1c-0.6-0.5-1-1.1-1.3-1.8c-0.3-0.7-0.5-1.6-0.5-2.7V49.1h-3.1v-4.6h3.1v-7.6h6v7.6h4.9v4.6h-4.9v11.5
			c0,0.8,0.2,1.4,0.7,1.8c0.4,0.3,1,0.5,1.6,0.5s1.2-0.1,1.8-0.3c0.6-0.2,1.1-0.4,1.4-0.5L359.2,66.8z"/>
		<path class="st363" d="M362.3,41.2v-6h6v6H362.3z M362.3,68V44.5h6V68H362.3z"/>
		<path class="st363" d="M380.1,68.4c-1.1,0-2.2-0.2-3.2-0.6c-1-0.4-1.8-0.9-2.6-1.6s-1.3-1.5-1.7-2.4c-0.4-0.9-0.6-1.9-0.6-3
			c0-1.1,0.2-2.1,0.7-3.1c0.5-0.9,1.2-1.7,2.1-2.4c0.9-0.7,1.9-1.2,3.2-1.5c1.2-0.4,2.6-0.6,4-0.6c1,0,2.1,0.1,3.1,0.3
			c1,0.2,1.9,0.4,2.7,0.8v-1.3c0-1.6-0.4-2.7-1.3-3.6c-0.9-0.8-2.2-1.3-3.9-1.3c-1.3,0-2.5,0.2-3.7,0.7c-1.2,0.4-2.4,1.1-3.7,2
			l-1.8-3.8c3-2,6.3-3,9.8-3c3.4,0,6,0.8,7.9,2.5c1.9,1.7,2.8,4.1,2.8,7.2v7.3c0,0.6,0.1,1.1,0.3,1.3c0.2,0.3,0.6,0.4,1.1,0.4V68
			c-1,0.2-1.9,0.3-2.6,0.3c-1.1,0-2-0.3-2.6-0.8c-0.6-0.5-1-1.2-1.1-2l-0.1-1.3c-1,1.4-2.3,2.4-3.8,3.1
			C383.4,68.1,381.8,68.4,380.1,68.4z M381.8,64c1,0,2-0.2,2.9-0.5c0.9-0.4,1.6-0.8,2.1-1.4c0.7-0.5,1-1.1,1-1.7v-2.7
			c-0.7-0.3-1.5-0.5-2.3-0.6c-0.8-0.2-1.6-0.2-2.4-0.2c-1.6,0-2.8,0.4-3.8,1.1c-1,0.7-1.5,1.6-1.5,2.7c0,1,0.4,1.9,1.2,2.5
			C379.7,63.7,380.7,64,381.8,64z"/>
		<path class="st363" d="M399.4,35.3h6v25.2c0,0.9,0.2,1.5,0.6,2c0.4,0.5,1,0.7,1.8,0.7c0.4,0,0.8-0.1,1.2-0.2
			c0.4-0.1,0.8-0.3,1.2-0.4l0.8,4.6c-0.8,0.4-1.7,0.7-2.8,0.9s-2,0.3-2.9,0.3c-1.9,0-3.3-0.5-4.4-1.5s-1.5-2.4-1.5-4.3V35.3z"/>
	</g>
	<g>
		<path class="st363" d="M9.4,27.9c-0.5-1.1-1.1-2-1.4-3c-1-3.5-2.2-6.9-2.4-10.6c-0.1-2.6-0.1-5.1,0.3-7.6c0.3-2,0.9-4,1.5-5.9
			C7.5,0.3,7.6,0,8,0c0.4,0,0.6,0.3,0.7,0.6c0.8,1.9,1.9,3.6,2.8,5.4c0.2,0.3,0.3,0.7,0.6,1c1.5,2.3,3,4.5,4.5,6.7
			c2.8,4.4,6.1,8.4,9.6,12.3c3.5,3.7,7.2,7.2,11.3,10.4c2.2,1.7,4.5,3.2,6.6,4.9c1.7,1.3,2.5,3.1,2,5.4c-0.2,1.1-1,1.6-1.9,2.1
			c-0.4,0.2-0.6,0-0.7-0.4c-0.1-0.4,0.1-0.7,0.2-1c0.1-0.3,0.5-0.7,0-1c-0.4-0.2-0.9-0.1-1.2,0.3c-0.5,0.8-1,1.7-1.4,2.5
			c-1.1,2.4-2.3,4.7-3.4,7.2c-0.7,1.6-1,3.3-1.6,4.9c-0.8,1.8-0.8,3.8-1.3,5.7c-0.2,0.7-0.2,1.4-0.3,2.1c-0.1,1.7-0.6,3.3-0.5,4.9
			c0,0.3-0.1,0.7,0.1,0.9c0.4,0,0.5-0.4,0.7-0.6c0.4-0.3,0.9-0.6,1.3-0.2c0.4,0.3,0.3,0.8,0.1,1.3c-0.4,0.9-0.6,1.9-0.8,2.8
			c-0.5,2.5,0.1,4.8,1,7.1c0.2,0.4,0.3,0.8-0.1,1.1c-0.3,0.2-0.7,0.1-1-0.1c-0.8-0.6-1.3-1.4-1.6-2.3C33.2,82,32.5,80,32,78
			c-0.8-3.3-1.1-6.7-0.7-10.1c0.2-1.4,0-2.7,0.3-4.1c0.3-1.1,0.7-2.2,0.5-3.5c0,0,0-0.1,0-0.1c1.2-3,1.3-6.3,2.4-9.3
			c1.1-2.9,0.6-5.6-0.8-8.4c-1.8-3.6-4.6-6.3-7-9.4c-1.8-2.2-3.4-4.6-5.2-6.8c-2.3-2.9-4.3-6.1-6.3-9.1c-1.2-1.8-2.6-3.6-3.4-5.7
			c-0.1-0.3-0.2-0.7-0.5-0.6c-0.4,0.1-0.2,0.5-0.3,0.7c-0.1,1.8-0.4,3.5-0.4,5.3c0,2.3,0.5,4.5,1,6.7c0.8,3.4,2.4,6.4,4.3,9.3
			c1.9,2.9,4.1,5.6,6.5,8.1c2.1,2.1,4.3,4.1,6.7,5.8c1,0.7,1.7,1.7,2.6,2.4c0.3,0.3,0.3,0.7,0,1.1c-0.3,0.3-0.7,0.2-1,0
			c-1.5-1-3-1.9-4.5-3c-1.1-0.8-2.2-1.7-3.3-2.6c-2.1-1.8-4.1-3.7-6-5.7c-1.5-1.6-2.8-3.4-4.1-5.1c-0.6-0.7-1-1.6-1.5-2.4
			c-0.3-0.4-0.6-0.7-1.2-0.5c-0.6,0.1-1.2,0-1.7-0.5c-0.5-0.4-1.2-1-1.8-0.7c-0.5,0.3-0.1,1.1,0,1.6c1,5,3.4,9.3,7.1,12.8
			c2.8,2.7,5.8,4.9,9.2,6.7c2.1,1.1,4,2.7,6.4,3.3c0.4,0.1,0.8,0.4,0.7,0.9c-0.1,0.5-0.6,0.6-1,0.6c-1.3,0-2.6-0.5-3.7-1
			c-1.7-0.8-3.4-1.7-5.1-2.6c-4.3-2.4-8.2-5.3-11.4-9.1c-1.4-1.6-2.9-3.3-3.7-5.5c-0.2-0.5-0.6-0.9-0.8-1.3
			c-1.1-1.8-1.5-3.9-2.3-5.8C1,28,0.8,25.2,0.6,22.5c-0.1-1.7,0.1-3.4,0.2-5.2c0-0.6,0.1-1.2,0.1-1.8c0-0.7,0.4-0.9,1-1
			c0.6-0.1,0.6,0.4,0.8,0.8c0.9,2.4,1.7,4.7,2.9,7c0.9,1.8,2,3.4,3.1,5.1C8.9,27.7,8.9,27.9,9.4,27.9"/>
		<path class="st363" d="M49.5,61.9c-1,1.2-2.2,2-3.5,2.9c-2.2,1.5-4.7,2.6-7.6,2.6c-0.5,0-1.1,0.1-1.2-0.6
			c-0.1-0.6,0.4-0.9,0.8-1.1c0.5-0.4,1.2-0.5,1.8-0.6c3.1-0.4,5.4-2.2,7.4-4.5c0.2-0.2,0.3-0.5,0.5-0.6c0.6-0.5,0.7-0.9,0-1.5
			c-0.6-0.4-0.3-0.9,0.2-1.2c1.3-0.8,2.7-1.2,4.2-1.4c2.6-0.4,5.1-0.5,7.7-0.1c1.2,0.2,1.9,1.1,3,1.4c0.6,0.2,1.2,0.5,1.8,0.6
			c1,0.2,1.9,0.7,2.7,1.6c0.7,0.7,0.6,1.5,0.3,2.4c-0.2,0.5-0.6,0.8-1.2,0.7c-2.5-0.3-4.6,0.4-6,2.4c-1.2,1.6-2.1,3.3-3,5.2
			c-1,2.2-2.4,4.3-3.7,6.4c-1.2,2-2.4,4.1-3.9,5.9c-3.2,3.8-6.5,7.4-11.1,9.6c-2,0.9-4,1.7-6.2,1.4c-0.2,0-0.4,0-0.6,0
			c-0.4-0.1-0.9-0.1-0.9-0.6c0-0.4,0.4-0.5,0.7-0.6c0.7-0.2,1.5-0.4,2.2-0.7c1.3-0.4,2.7-0.8,4-1.4c3.4-1.7,5.9-4.2,7.4-7.7
			c0.6-1.5,1.1-3.1,1.4-4.8c0.4-2-0.2-3.9-1.3-5.7c-0.5-0.7-1.4-0.7-2.1-0.9c-0.6-0.2-1.3-0.3-1.9-0.4c-0.6-0.2-0.8-0.6-0.7-1.2
			c0-0.6,0.5-0.7,1-0.7c2.5-0.2,4.3-1.8,5.8-3.6C48.2,64,49.1,63.1,49.5,61.9 M55.8,58L55.8,58c-0.6,0-1.2,0-1.9,0
			c-2.1,0-2.6,0.5-2.6,2.7c0,0.8,0.2,1.6-0.1,2.3c-0.5,1.1-0.5,2.3-0.5,3.4c0,0.9,0.3,1.7,1.2,2c0.8,0.3,1.6,0.1,2.3-0.5
			c1.1-0.9,1.7-2.1,1.9-3.4c0.3-1.6,0.7-3.1,2.4-3.8c0.1,0,0.1-0.1,0.1-0.1c0.6-0.6,0.4-1.4,0.3-2.1c-0.1-0.6-0.8-0.4-1.2-0.4
			C57.1,57.9,56.4,58,55.8,58"/>
		<path class="st363" d="M26.2,59.9c-1.9-0.5-3.8-0.5-5.7-1c-3.1-0.7-5.9-1.9-8.7-3.3c-1.8-0.9-3.2-2.3-4.7-3.7
			C4,48.9,2,45.3,0.8,41.2c-0.3-1-0.2-2.1-0.6-3.1c-0.1-0.4-0.2-0.8,0.3-1c0.4-0.2,0.7,0.1,1.1,0.3c0.8,0.7,1.1,1.8,1.9,2.6
			c1.8,1.9,3.6,3.9,6.1,5c0.6,0.3,0.8,1.3,0.6,1.9c-0.2,0.4-0.5,0.4-0.8,0.3c-0.6-0.2-1.5-0.6-1.8-0.2c-0.4,0.6,0.5,1.1,0.8,1.6
			c2.6,4.1,6.5,6.3,11.1,7.5c2.6,0.7,5.3,1.4,8,1.8c0.5,0.1,0.7,0.4,0.8,0.9c0.1,0.5-0.2,0.7-0.6,0.9C27.1,59.9,26.7,59.9,26.2,59.9
			"/>
		<path class="st363" d="M18.8,63.9c-3.5,0.2-6.6-0.6-9.5-1.9c-2.5-1.1-4.6-2.8-6.4-5c-1-1.2-1.8-2.5-2.6-3.9
			c-0.3-0.5-0.5-1.1,0-1.5c0.5-0.5,1-0.1,1.4,0.2c1.6,1.6,3.7,2.1,5.6,3.1c0.3,0.1,0.6,0.2,0.9,0.2c0.6,0,1.1,0.3,1.5,0.8
			c0.7,0.7,0.5,1.5-0.5,1.7c-0.2,0.1-0.6,0-0.7,0.3c-0.1,0.3,0.2,0.4,0.4,0.6c2,1.6,4.4,2.3,6.9,2.8c2.6,0.5,5.2,0.5,7.8-0.1
			c0.8-0.2,1.7-0.1,2.5,0c0.5,0,0.9,0.2,0.9,0.8c0,0.6-0.4,0.8-0.9,0.9C23.7,63.4,21.2,64.2,18.8,63.9"/>
		<path class="st363" d="M16.5,71.2c-2.2,0.2-4.1-0.6-6-1.3C8,69,6.1,67.4,4.4,65.6c-0.6-0.6-1.3-1-1.5-1.9
			c-0.1-0.4-0.1-0.9,0.3-1.2c0.4-0.3,0.7-0.1,1.1,0.1c2.1,1,4.3,1.8,6.8,1.7c0.5,0,1.2-0.1,1.4,0.6c0.2,0.7-0.2,1.2-0.7,1.6
			c-0.2,0.2-0.6,0.1-0.5,0.5c0.1,0.2,0.4,0.2,0.6,0.3c4.7,2.5,9.3,1.1,13.8-0.7c0.6-0.2,1.2-0.6,1.8-0.8c0.3-0.2,0.7-0.2,1,0.2
			c0.3,0.4,0.1,0.8-0.2,1.1c-1.3,1.3-2.9,2.2-4.7,2.6c-1,0.3-2,0.7-3,1C19.2,71,17.9,71.3,16.5,71.2"/>
		<path class="st363" d="M15.2,77.8c-3.3-0.2-6.3-1.2-8.9-3.3c-0.3-0.2-0.7-0.4-1-0.6c-0.6-0.4-0.7-1-0.5-1.6
			c0.2-0.7,0.8-0.6,1.3-0.4c1.4,0.6,2.8,0.6,4.2,0.7c0.5,0,1-0.2,1.5-0.3c0.5-0.1,0.9-0.1,1.3,0.3c0.4,0.4,0.2,0.9-0.1,1.3
			c-0.6,0.7-0.2,0.8,0.5,1c4.2,1.3,7.7-0.3,11-2.6c0.5-0.3,0.9-0.7,1.3-1c0.4-0.3,0.7-0.5,1.1-0.2c0.4,0.4,0.4,0.9,0,1.3
			c-0.7,0.8-1.5,1.6-2.5,2.2c-1.3,0.8-2.5,1.7-3.9,2.2c-0.1,0-0.2,0.1-0.3,0.1C18.6,76.9,17,78,15.2,77.8"/>
		<path class="st363" d="M16.4,83.5c-2.1,0.2-4-0.7-5.8-1.6c-0.3-0.2-0.6-0.5-0.9-0.8c-0.3-0.3-0.3-0.6-0.1-1
			c0.2-0.3,0.4-0.5,0.8-0.5c1.5,0.2,3,0,4.5-0.5c1.1-0.3,1.5,0,1.4,1.2c0,0.6,0.3,0.7,0.8,0.8c1.6,0.2,2.9-0.4,4.3-1.1
			c1.8-0.9,3.1-2.3,4.5-3.6c0.3-0.3,0.7-0.5,1-0.2c0.4,0.4,0.3,0.9,0,1.2c-1,1.1-1.8,2.5-3.1,3.3c-1.6,1-3.2,2-5,2.5
			C18,83.5,17.3,83.5,16.4,83.5"/>
		<path class="st363" d="M18.8,88.8c-0.6,0-1.2,0-1.8-0.1c-0.5-0.1-1-0.2-0.9-0.9c0.1-0.6,0.1-1.3,0.9-1.3c1.1,0,2-0.6,2.9-1.2
			c0.6-0.4,1.2-0.5,1.4,0.4c0.1,0.4,0.4,0.3,0.7,0.3c1.6-0.4,2.7-1.7,3.7-2.9c0.6-0.8,1-1.7,1.5-2.5c0.2-0.3,0.5-0.7,0.9-0.6
			c0.5,0.2,0.3,0.7,0.2,1c-0.4,2-1.4,3.6-2.8,5C23.2,88.1,21.9,88.7,18.8,88.8"/>
	</g>
</g>
</svg>
